<?xml version="1.0" encoding="UTF-8"?>
<svg width="730px" height="90px" viewBox="0 0 730 90" version="1.1" xmlns="http://www.w3.org/2000/svg" xmlns:xlink="http://www.w3.org/1999/xlink">
    <!-- Generator: Sketch 46.2 (44496) - http://www.bohemiancoding.com/sketch -->
    <title>bg_step</title>
    <desc>Created with Sketch.</desc>
    <defs></defs>
    <g id="註冊" stroke="none" stroke-width="1" fill="none" fill-rule="evenodd" fill-opacity="0.3">
        <g id="Large-Devices:-Desktops---step4" transform="translate(-147.000000, -122.000000)" fill="#FFFFFF">
            <g id="Group-4" transform="translate(147.000000, 122.000000)">
                <g id="stepbar">
                    <path d="M516.901586,42 C515.357828,18.5459045 495.844728,0 472,0 C448.155272,0 428.642172,18.5459045 427.098414,42 L302.901586,42 C301.357828,18.5459045 281.844728,0 258,0 C234.155272,0 214.642172,18.5459045 213.098414,42 L89.9015863,42 C88.3578281,18.5459045 68.8447281,0 45,0 C20.1471863,0 0,20.1471863 0,45 C0,69.8528137 20.1471863,90 45,90 C68.8447281,90 88.3578281,71.4540955 89.9015863,48 L213.098414,48 C214.642172,71.4540955 234.155272,90 258,90 C281.844728,90 301.357828,71.4540955 302.901586,48 L427.098414,48 C428.642172,71.4540955 448.155272,90 472,90 C495.844728,90 515.357828,71.4540955 516.901586,48 L640.098414,48 C641.642172,71.4540955 661.155272,90 685,90 C709.852814,90 730,69.8528137 730,45 C730,20.1471863 709.852814,0 685,0 C661.155272,0 641.642172,18.5459045 640.098414,42 L516.901586,42 Z" id="bg_step"></path>
                </g>
            </g>
        </g>
    </g>
</svg>