<?xml version="1.0" encoding="UTF-8"?>
<svg width="20px" height="25px" viewBox="0 0 20 25" version="1.1" xmlns="http://www.w3.org/2000/svg" xmlns:xlink="http://www.w3.org/1999/xlink">
    <!-- Generator: Sketch 46.2 (44496) - http://www.bohemiancoding.com/sketch -->
    <title>ic-mycourse</title>
    <desc>Created with Sketch.</desc>
    <defs></defs>
    <g id="內頁" stroke="none" stroke-width="1" fill="none" fill-rule="evenodd">
        <g id="Large-Devices:-Desktops---12-col" transform="translate(-659.000000, -28.000000)" fill-rule="nonzero" fill="#ABABAB">
            <g id="Header">
                <g id="Nav-r" transform="translate(632.000000, 15.000000)">
                    <g id="Group-5" transform="translate(27.000000, 13.000000)">
                        <g id="btn-我的課程">
                            <g id="ic-mycourse">
                                <path d="M2.91,17.9107958 C1.99402737,18.8232168 1.26684033,19.9072013 0.77,21.1007958 C0.271701754,22.2957673 0.0101948923,23.576132 0,24.8707958 L3,24.8707958 C2.98942297,23.0630997 3.71085106,21.3280652 5,20.0607958 C6.29962189,18.6968746 8.11677606,17.9482071 10,18.0007958 C11.8530403,17.9520533 13.6427862,18.6766468 14.94,20.0007958 C16.2335943,21.2691728 16.9555922,23.0091877 16.94,24.8207958 L19.94,24.8207958 C19.9098372,23.5253446 19.63854,22.2468565 19.14,21.0507958 C18.1378653,18.6509052 16.2298906,16.7429305 13.83,15.7407958 L13.83,15.7407958 C14.5692461,15.345692 15.2437115,14.839843 15.83,14.2407958 C17.4292369,12.689737 18.3190232,10.5484626 18.29,8.32079575 C18.3194536,6.0988961 17.4291625,3.9636453 15.83,2.42079575 C14.2919231,0.861837726 12.1899541,-0.0106776856 10,0.000795753085 C7.78176192,-0.030315254 5.64830822,0.851994412 4.1,2.44079575 C2.51119866,3.98910398 1.62888899,6.12255768 1.66,8.34079575 C1.62899781,10.5629003 2.50675195,12.7012973 4.09,14.2607958 C4.67639214,14.8597248 5.35083832,15.3655594 6.09,15.7607958 L6.09,15.7607958 C4.8988859,16.2612918 3.81824367,16.9919147 2.91,17.9107958 Z M4.69,8.35079575 C4.65931366,6.936076 5.22125884,5.57290576 6.24,4.59079575 C7.21515393,3.55732625 8.57923533,2.98049395 10,3.00079575 C11.4127708,2.97551858 12.7719975,3.5409569 13.75,4.56079575 C14.7765325,5.55002614 15.3391554,6.92572993 15.3,8.35079575 C15.3247896,9.76932281 14.7598712,11.1345422 13.74,12.1207958 C12.7657833,13.1401128 11.4097816,13.7057178 10,13.6807958 C8.58405775,13.7121905 7.22122711,13.1416187 6.25,12.1107958 C5.23268919,11.1269312 4.66799228,9.76586689 4.69,8.35079575 L4.69,8.35079575 Z" id="ic-user"></path>
                            </g>
                        </g>
                    </g>
                </g>
            </g>
        </g>
    </g>
</svg>