<?xml version="1.0" encoding="UTF-8"?>
<svg width="24px" height="19px" viewBox="0 0 24 19" version="1.1" xmlns="http://www.w3.org/2000/svg" xmlns:xlink="http://www.w3.org/1999/xlink">
    <!-- Generator: Sketch 46.2 (44496) - http://www.bohemiancoding.com/sketch -->
    <title>ic-q</title>
    <desc>Created with Sketch.</desc>
    <defs></defs>
    <g id="內頁" stroke="none" stroke-width="1" fill="none" fill-rule="evenodd">
        <g id="Extra-large:-Desktops---12-col-最終版" transform="translate(-1065.000000, -130.000000)" fill="#FFFFFF">
            <g id="Content" transform="translate(87.000000, 99.000000)">
                <g id="btn-grop" transform="translate(955.000000, 18.000000)">
                    <g id="btn-新增問卷">
                        <g id="Group" transform="translate(23.000000, 11.000000)">
                            <g id="icon_q2" transform="translate(0.000000, 2.000000)">
                                <path d="M18.632926,17.1513027 C18.632926,17.6661324 18.4299059,18.0951507 18.0238594,18.4383704 C17.617813,18.812792 17.1666571,19 16.6703781,19 C16.0387504,19 15.5575174,18.648985 15.2266647,17.9469446 L13.9634155,15.1387968 L4.66951052,15.1387968 L3.4062613,17.9469446 C3.07540866,18.648985 2.57913714,19 1.91743186,19 C1.42115289,19 0.977516235,18.812792 0.586508568,18.4383704 C0.195500901,18.0951507 0,17.6661324 0,17.1513027 C0,16.8548856 0.0827119196,16.558473 0.24813824,16.2620559 L7.53437929,1.28526765 C7.88027069,0.598828085 8.47429266,0.255613453 9.31646302,0.255613453 C10.1586334,0.255613453 10.7526553,0.598828085 11.0985467,1.28526765 L18.3847878,16.2620559 C18.5502141,16.558473 18.632926,16.8548856 18.632926,17.1513027 Z M12.5873762,12.1200379 L6.04554985,12.1200379 L9.31646302,4.91245855 L12.5873762,12.1200379 Z M24,4.9289688 C24,5.72101445 23.5928029,6.11703133 22.7783964,6.11703133 L20.4497144,6.11703133 L20.4497144,8.51115734 C20.4497144,9.35600603 20.080692,9.77842403 19.3426361,9.77842403 C18.57913,9.77842403 18.1973827,9.35600603 18.1973827,8.51115734 L18.1973827,6.11703133 L15.8687007,6.11703133 C15.4869477,6.11703133 15.1942748,5.99822627 14.9906731,5.76061257 C14.7616213,5.53619964 14.6470971,5.25238754 14.6470971,4.90916776 C14.6470971,4.10392135 15.0542942,3.70130419 15.8687007,3.70130419 L18.1973827,3.70130419 L18.1973827,1.22797401 C18.1973827,0.409526843 18.5664051,0.00030939728 19.304461,0.00030939728 C20.0679671,-0.0128913635 20.4497144,0.396326082 20.4497144,1.22797401 L20.4497144,3.70130419 L22.7783964,3.70130419 C23.1601494,3.70130419 23.4528223,3.82010925 23.656424,4.05772295 C23.8854758,4.29533664 24,4.58574902 24,4.9289688 Z" id="ic-q"></path>
                            </g>
                        </g>
                    </g>
                </g>
            </g>
        </g>
    </g>
</svg>