<?xml version="1.0" encoding="UTF-8"?>
<svg width="25px" height="26px" viewBox="0 0 25 26" version="1.1" xmlns="http://www.w3.org/2000/svg" xmlns:xlink="http://www.w3.org/1999/xlink">
    <!-- Generator: Sketch 49 (51002) - http://www.bohemiancoding.com/sketch -->
    <title>ic_itme_q1</title>
    <desc>Created with Sketch.</desc>
    <defs></defs>
    <g id="Symbols" stroke="none" stroke-width="1" fill="none" fill-rule="evenodd">
        <g id="list1-focus" transform="translate(-17.000000, -29.000000)" fill="#FFFFFF">
            <g id="icon_q1" transform="translate(8.000000, 20.000000)">
                <g id="ic_itme_q1" transform="translate(9.000000, 9.000000)">
                    <path d="M22.5360577,18.3074878 L22.5360577,2.45702996 L2.46394231,2.45702996 L2.46394231,20.9703647 L4.98798077,18.3074878 L22.5360577,18.3074878 Z M22.5360577,0 C23.2171508,0 23.7980745,0.239707843 24.2788462,0.719130721 C24.7596178,1.1985536 25,1.77784755 25,2.45702996 L25,18.509055 C25,19.1882374 24.7596178,19.7775192 24.2788462,20.276918 C23.7980745,20.7763168 23.2171508,21.0260125 22.5360577,21.0260125 L4.98798077,21.0260125 L0,26 L1.1285234e-12,2.45702996 C1.1285234e-12,1.77784755 0.240382212,1.1985536 0.721153846,0.719130721 C1.20192548,0.239707843 1.78284916,0 2.46394231,0 L22.5360577,0 Z" id="chat_bubble_outline---material"></path>
                    <path d="M16.3953961,13.7637363 C16.8873868,14.1129444 17.4222494,14.3905159 18,14.5964591 L17.2620176,16 C16.9596013,15.9104595 16.6639599,15.7873431 16.3750846,15.6306471 C16.3118932,15.5993079 15.8673027,15.3083056 15.0412999,14.7576313 C14.3913305,15.0396839 13.67141,15.1807082 12.8815166,15.1807082 C11.355894,15.1807082 10.1609161,14.7352507 9.29654705,13.8443223 C8.43217803,12.953394 8,11.7020838 8,10.0903541 C8,8.48310145 8.43330643,7.23291045 9.2999323,6.33974359 C10.1665582,5.44657673 11.3423532,5 12.8273527,5 C14.2988112,5 15.4655791,5.44657673 16.3276913,6.33974359 C17.1898035,7.23291045 17.6208531,8.48310145 17.6208531,10.0903541 C17.6208531,10.9409892 17.5012425,11.6886415 17.2620176,12.3333333 C17.0814705,12.8258063 16.7925996,13.3026025 16.3953961,13.7637363 Z M14.7840217,12.6422466 C15.0413012,12.3422858 15.234258,11.9796521 15.3628978,11.5543346 C15.4915375,11.129017 15.5558565,10.6410284 15.5558565,10.0903541 C15.5558565,8.95318927 15.3030944,8.10368616 14.7975626,7.54181929 C14.2920309,6.97995242 13.6307872,6.6990232 12.8138118,6.6990232 C11.9968364,6.6990232 11.3344643,6.98107166 10.8266757,7.54517705 C10.3188871,8.10928243 10.0649966,8.95766629 10.0649966,10.0903541 C10.0649966,11.24095 10.3188871,12.1016455 10.8266757,12.6724664 C11.3344643,13.2432873 11.9765251,13.5286935 12.7528775,13.5286935 C13.0417527,13.5286935 13.3148261,13.4816855 13.5721056,13.3876679 C13.1658747,13.1235233 12.7528796,12.9175832 12.3331077,12.7698413 L12.8950575,11.6349206 C13.5540543,11.858772 14.1837027,12.194544 14.7840217,12.6422466 Z" id="Q"></path>
                </g>
            </g>
        </g>
    </g>
</svg>