<?xml version="1.0" encoding="UTF-8"?>
<svg width="42px" height="42px" viewBox="0 0 42 42" version="1.1" xmlns="http://www.w3.org/2000/svg" xmlns:xlink="http://www.w3.org/1999/xlink">
    <!-- Generator: Sketch 44.1 (41455) - http://www.bohemiancoding.com/sketch -->
    <title>icon_q1</title>
    <desc>Created with Sketch.</desc>
    <defs></defs>
    <g id="課中教學_切" stroke="none" stroke-width="1" fill="none" fill-rule="evenodd">
        <g id="[老師]---愛上互動---互動歷程畫面_3" transform="translate(-74.000000, -328.000000)">
            <g id="main" transform="translate(66.000000, 100.000000)">
                <g id="Left" transform="translate(0.000000, 12.000000)">
                    <g id="list1-copy" transform="translate(0.000000, 196.000000)">
                        <g id="icon_q1" transform="translate(8.000000, 20.000000)">
                            <circle id="Oval-2" fill="#A1CC37" cx="21" cy="21" r="21"></circle>
                            <g id="ic_itme_q1" transform="translate(9.000000, 9.000000)" fill="#FFFFFF">
                                <path d="M22.5360577,18.3074878 L22.5360577,2.45702996 L2.46394231,2.45702996 L2.46394231,20.9703647 L4.98798077,18.3074878 L22.5360577,18.3074878 Z M22.5360577,0 C23.2171508,0 23.7980745,0.239707843 24.2788462,0.719130721 C24.7596178,1.1985536 25,1.77784755 25,2.45702996 L25,18.509055 C25,19.1882374 24.7596178,19.7775192 24.2788462,20.276918 C23.7980745,20.7763168 23.2171508,21.0260125 22.5360577,21.0260125 L4.98798077,21.0260125 L-1.05160325e-12,26 L7.69201552e-14,2.45702996 C7.69201552e-14,1.77784755 0.240382212,1.1985536 0.721153846,0.719130721 C1.20192548,0.239707843 1.78284916,0 2.46394231,0 L22.5360577,0 Z" id="chat_bubble_outline---material"></path>
                                <path d="M16.0849609,13.5285156 C16.5817082,13.8839862 17.1217419,14.1665354 17.7050781,14.3761719 L16.9599609,15.8048828 C16.6546209,15.7137365 16.3561213,15.5884123 16.0644531,15.4289063 C16.0006507,15.397005 15.551762,15.1007841 14.7177734,14.5402344 C14.0615202,14.8273452 13.3346394,14.9708984 12.5371094,14.9708984 C10.9967371,14.9708984 9.79020619,14.5174525 8.91748047,13.6105469 C8.04475475,12.7036413 7.60839844,11.429891 7.60839844,9.78925781 C7.60839844,8.15318192 8.04589406,6.88057095 8.92089844,5.97138672 C9.79590281,5.06220249 10.9830654,4.60761719 12.4824219,4.60761719 C13.9681064,4.60761719 15.1461545,5.06220249 16.0166016,5.97138672 C16.8870486,6.88057095 17.3222656,8.15318192 17.3222656,9.78925781 C17.3222656,10.6551476 17.2014986,11.4162077 16.9599609,12.0724609 C16.7776684,12.5737655 16.4860046,13.0591122 16.0849609,13.5285156 Z M14.4580078,12.3869141 C14.7177747,12.081574 14.912597,11.7124371 15.0424805,11.2794922 C15.1723639,10.8465473 15.2373047,10.3498075 15.2373047,9.78925781 C15.2373047,8.63169994 14.9820989,7.7669625 14.4716797,7.19501953 C13.9612605,6.62307657 13.2936239,6.33710937 12.46875,6.33710937 C11.6438761,6.33710937 10.9751002,6.62421588 10.4624023,7.1984375 C9.94970447,7.77265912 9.69335938,8.63625726 9.69335938,9.78925781 C9.69335938,10.9604876 9.94970447,11.8366182 10.4624023,12.4176758 C10.9751002,12.9987334 11.6233685,13.2892578 12.4072266,13.2892578 C12.6988947,13.2892578 12.9746081,13.2414067 13.234375,13.1457031 C12.8242167,12.8768216 12.4072287,12.6671883 11.9833984,12.5167969 L12.5507812,11.3615234 C13.2161492,11.5893892 13.851885,11.9311826 14.4580078,12.3869141 Z" id="Q"></path>
                            </g>
                        </g>
                    </g>
                </g>
            </g>
        </g>
    </g>
</svg>