<?xml version="1.0" encoding="UTF-8"?>
<svg width="144px" height="152px" viewBox="0 0 144 152" version="1.1" xmlns="http://www.w3.org/2000/svg" xmlns:xlink="http://www.w3.org/1999/xlink">
    <!-- Generator: Sketch 46.2 (44496) - http://www.bohemiancoding.com/sketch -->
    <title>icon_item03</title>
    <desc>Created with Sketch.</desc>
    <defs></defs>
    <g id="註冊" stroke="none" stroke-width="1" fill="none" fill-rule="evenodd">
        <g id="Large-Devices:-Desktops---step4" transform="translate(-440.000000, -265.000000)">
            <g id="Group-4" transform="translate(147.000000, 122.000000)">
                <g id="Group-13" transform="translate(109.000000, 143.000000)">
                    <g id="icon_item03" transform="translate(184.000000, 0.000000)">
                        <path d="M72,152 C32.2333714,152 0,119.763543 0,80 C0,40.2333714 32.2333714,8 72,8 C111.760971,8 144,40.2333714 144,80 C144,119.763543 111.760971,152 72,152 Z" id="Fill-3" fill="#FFD677"></path>
                        <path d="M78,15.9285714 L102.666667,15.9285714 C104.875806,15.9285714 106.666667,17.7194324 106.666667,19.9285714 L106.666667,63 C106.666667,65.209139 104.875806,67 102.666667,67 L78,67 C75.790861,67 74,65.209139 74,63 L74,19.9285714 C74,17.7194324 75.790861,15.9285714 78,15.9285714 Z" id="Rectangle-path" fill="#242C3C" fill-rule="nonzero"></path>
                        <rect id="Rectangle-path" fill="#F0B14E" fill-rule="nonzero" x="78.7945205" y="20.1617647" width="23.3333333" height="37.1428571"></rect>
                        <ellipse id="Oval" fill="#FFFFFF" fill-rule="nonzero" cx="90.3333333" cy="62.3571429" rx="1.75" ry="1.74107143"></ellipse>
                        <path d="M115.333333,15.9285714 L140,15.9285714 C142.209139,15.9285714 144,17.7194324 144,19.9285714 L144,63 C144,65.209139 142.209139,67 140,67 L115.333333,67 C113.124194,67 111.333333,65.209139 111.333333,63 L111.333333,19.9285714 C111.333333,17.7194324 113.124194,15.9285714 115.333333,15.9285714 Z" id="Rectangle-path" fill="#242C3C" fill-rule="nonzero"></path>
                        <rect id="Rectangle-path" fill="#DF5444" fill-rule="nonzero" x="116.191781" y="20.1617647" width="23.3333333" height="37.1428571"></rect>
                        <path d="M122.90411,31.6781344 C122.90411,28.9623485 125.107492,26.7647059 127.827246,26.7647059 C130.548194,26.7647059 132.751577,28.9635396 132.751577,31.6781344 C132.751577,34.3879647 130.548194,36.5879896 127.827246,36.5879896 C125.107492,36.5879896 122.90411,34.3885603 122.90411,31.6781344 Z M119.068493,46.8424327 L119.068493,42.9569529 C119.068493,39.8260567 121.646767,37.2794118 124.790961,37.2794118 L130.925331,37.2794118 C134.068331,37.2794118 136.874644,39.8254611 136.874644,42.9569529 L136.874644,46.8424327 L119.068493,46.8424327 Z" id="Combined-Shape" fill="#FFFFFF" fill-rule="nonzero"></path>
                        <ellipse id="Oval" fill="#FFFFFF" fill-rule="nonzero" cx="127.666667" cy="62.3571429" rx="1.75" ry="1.74107143"></ellipse>
                        <path d="M90.4299862,35.6321073 C87.7102321,35.6321073 85.5068493,33.432678 85.5068493,30.7222521 C85.5068493,28.0064661 87.7102321,25.8088235 90.4299862,25.8088235 C93.1509341,25.8088235 95.354317,28.0076573 95.354317,30.7222521 C95.354317,33.4320824 93.1509341,35.6321073 90.4299862,35.6321073 Z M81.6712329,45.8865503 L81.6712329,42.0010706 C81.6712329,38.8701743 84.2495072,36.3235294 87.3937004,36.3235294 L93.5280711,36.3235294 C96.6710704,36.3235294 99.4773838,38.8695788 99.4773838,42.0010706 L99.4773838,45.8865503 L81.6712329,45.8865503 Z" id="Combined-Shape" fill="#242C3C" fill-rule="nonzero"></path>
                        <path d="M109,4.64285714 C107.711336,4.64285714 106.666667,3.60351817 106.666667,2.32142857 C106.666667,1.03933897 107.711336,0 109,0 C110.288664,0 111.333333,1.03933897 111.333333,2.32142857 C111.333333,3.60351817 110.288664,4.64285714 109,4.64285714 Z M116,6.38392857 C115.033502,6.38392857 114.25,5.60442434 114.25,4.64285714 C114.25,3.68128994 115.033502,2.90178571 116,2.90178571 C116.966498,2.90178571 117.75,3.68128994 117.75,4.64285714 C117.75,5.60442434 116.966498,6.38392857 116,6.38392857 Z M102,6.38392857 C101.033502,6.38392857 100.25,5.60442434 100.25,4.64285714 C100.25,3.68128994 101.033502,2.90178571 102,2.90178571 C102.966498,2.90178571 103.75,3.68128994 103.75,4.64285714 C103.75,5.60442434 102.966498,6.38392857 102,6.38392857 Z M97.3333333,10.4464286 C96.6890011,10.4464286 96.1666667,9.92675908 96.1666667,9.28571429 C96.1666667,8.64466949 96.6890011,8.125 97.3333333,8.125 C97.9776655,8.125 98.5,8.64466949 98.5,9.28571429 C98.5,9.92675908 97.9776655,10.4464286 97.3333333,10.4464286 Z M120.666667,10.4464286 C120.022334,10.4464286 119.5,9.92675908 119.5,9.28571429 C119.5,8.64466949 120.022334,8.125 120.666667,8.125 C121.310999,8.125 121.833333,8.64466949 121.833333,9.28571429 C121.833333,9.92675908 121.310999,10.4464286 120.666667,10.4464286 Z" id="Combined-Shape" fill="#B5B5B5" fill-rule="nonzero"></path>
                        <path d="M124.631579,55.6003944 L124.631579,117.324051 C124.631579,122.778296 120.154426,127.199836 114.631579,127.199836 L30,127.199836 C24.4771525,127.199836 20,122.778296 20,117.324051 L20,55.6003944 C20,50.1461489 24.4771525,45.7246094 30,45.7246094 L114.631579,45.7246094 C120.154426,45.7246094 124.631579,50.1461489 124.631579,55.6003944 Z" id="Rectangle-path" fill="#455868" fill-rule="nonzero"></path>
                        <polygon id="Shape" fill="#FFFFFF" fill-rule="nonzero" points="116 51.6717181 29 51.6717181 29 121.054653 116 121.054653"></polygon>
                        <ellipse id="Oval" fill="#5F7588" fill-rule="nonzero" cx="49.6051764" cy="69.9680886" rx="5.92127998" ry="5.949602"></ellipse>
                        <path d="M63.323166,90.3095036 C63.8524322,90.3095036 64.3896711,90.1061511 64.7944401,89.6988298 L72.4218827,82.0379855 C73.2308075,81.2258078 73.2351005,79.9070975 72.4255625,79.0936873 C71.6154112,78.2802772 70.3042049,78.2802772 69.4940536,79.0936873 L63.3360451,85.1856361 C63.3360451,85.1856361 60.5731899,82.7552653 57.7588187,79.9274327 C56.5438984,78.7073175 55.069558,77.6603601 53.0512325,77.6603601 C51.364695,77.6603601 45.3115584,77.6603601 45.3115584,77.6603601 C43.357628,77.6603601 41.316611,79.5268899 41.316611,81.8438762 L41.316611,96.3016248 L56.6230124,96.3016248 L56.6230124,84.9613321 L61.6041243,89.6988298 C62.0101199,90.1061511 62.79206,90.3095036 63.323166,90.3095036 Z" id="Shape" fill="#A1CC37" fill-rule="nonzero"></path>
                        <polygon id="Shape" fill="#9DB0C0" fill-rule="nonzero" points="61.2619105 64.1454279 61.2619105 79.6273337 63.1097424 81.588145 64.5086486 80.1874775 64.5086486 67.8735576 97.1109524 67.8735576 97.1109524 93.0399735 61.2619105 93.0399735 61.2619105 96.3016248 100.356464 96.3016248 100.356464 64.1454279"></polygon>
                        <path d="M92.1321687,87.426532 C89.8001258,86.8112946 87.9017072,86.0378648 86.4368562,85.1062195 C86.0091196,85.1355165 85.6927166,85.1501648 85.4876374,85.1501648 C83.5188776,85.1501648 81.9427215,84.5290773 80.7591218,83.2868836 C79.5755221,82.0446899 78.9837312,80.389433 78.9837312,78.3210633 C78.9837312,76.2292559 79.5784518,74.5681397 80.7679108,73.3376648 C81.9573699,72.1071899 83.5628226,71.4919617 85.5843171,71.4919617 C87.6058116,71.4919617 89.2097994,72.1086547 90.3963288,73.3420594 C91.5828582,74.575464 92.176114,76.2439043 92.176114,78.3474304 C92.176114,81.3005702 91.018899,83.3601199 88.7044343,84.5261414 C90.4095209,85.1120818 92.1380193,85.4987967 93.8899812,85.6862976 L92.1321687,87.426532 Z M85.5403718,83.3571961 C86.6946744,83.3571961 87.6101926,82.9030991 88.2869538,81.9948914 C88.963715,81.0866837 89.3020905,79.8532976 89.3020905,78.2946961 C89.3020905,76.7771104 88.963715,75.5613022 88.2869538,74.6472351 C87.6101926,73.7331681 86.7093227,73.2761414 85.5843171,73.2761414 C84.4534521,73.2761414 83.5496525,73.7331681 82.8728913,74.6472351 C82.1961301,75.5613022 81.8577546,76.7829697 81.8577546,78.3122742 C81.8577546,79.8298599 82.1946653,81.0500626 82.8684968,81.9729187 C83.5423283,82.8957749 84.4329444,83.3571961 85.5403718,83.3571961 Z" id="Q" fill="#9DB0C0"></path>
                        <g id="mans" transform="translate(40.356204, 99.011655)" fill-rule="nonzero">
                            <path d="M8.99828403,10.757347 C6.20415129,10.757347 3.94051127,8.48164732 3.94051127,5.67723109 C3.94051127,2.86726888 6.20415129,0.593417887 8.99828403,0.593417887 C11.7936433,0.593417887 14.0572834,2.86850132 14.0572834,5.67723109 C14.0572834,8.4810311 11.7936433,10.757347 8.99828403,10.757347" id="Shape" fill="#5F7588"></path>
                            <path d="M0,22.3564167 L0,18.3361988 C0,15.0967314 2.64878386,12.4617756 5.87896322,12.4617756 L12.181094,12.4617756 C15.4100468,12.4617756 18.2931061,15.0961152 18.2931061,18.3361988 L18.2931061,22.3564167 L0,22.3564167 Z" id="Shape" fill="#5075DA"></path>
                            <path d="M30.0988688,10.8788481 C27.3047361,10.8788481 25.0404828,8.60314841 25.0404828,5.79873218 C25.0404828,2.98876997 27.3041228,0.714918976 30.0988688,0.714918976 C32.8942281,0.714918976 35.1572549,2.99000241 35.1572549,5.79873218 C35.1566416,8.60253219 32.8942281,10.8788481 30.0988688,10.8788481" id="Shape" fill="#5F7588"></path>
                            <path d="M20.905706,22.0496803 L20.905706,18.0294624 C20.905706,14.789995 23.5544899,12.1550392 26.784056,12.1550392 L33.0880266,12.1550392 C36.3163661,12.1550392 39.1981988,14.7893788 39.1981988,18.0294624 L39.1981988,22.0496803 L20.905706,22.0496803 Z" id="Shape" fill="#EB9509"></path>
                            <path d="M50.9009295,10.8788481 C48.1067967,10.8788481 45.84377,8.60314841 45.84377,5.79873218 C45.84377,2.98876997 48.1067967,0.714918976 50.9009295,0.714918976 C53.6962888,0.714918976 55.9599288,2.99000241 55.9599288,5.79873218 C55.9599288,8.60253219 53.6962888,10.8788481 50.9009295,10.8788481" id="Shape" fill="#5F7588"></path>
                            <path d="M41.7089932,22.0496803 L41.7089932,18.0294624 C41.7089932,14.789995 44.3577771,12.1550392 47.5879565,12.1550392 L53.889474,12.1550392 C57.1196533,12.1550392 60.0002595,14.7893788 60.0002595,18.0294624 L60.0002595,22.0496803 L41.7089932,22.0496803 Z" id="Shape" fill="#E8483F"></path>
                        </g>
                        <path d="M110.800995,133.721614 L96.4334948,119.354114 C96.315006,119.261392 96.2008471,119.160497 96.0917764,119.051426 C94.6324488,117.592099 94.6366144,115.221896 96.1010805,113.75743 C97.5655466,112.292963 99.9357497,112.288798 101.395077,113.748126 C101.398417,113.751466 103.166536,115.506574 106.699433,119.01345 L106.699433,88.7368421 C106.699433,86.6730412 108.378365,85 110.449433,85 C112.520501,85 114.199433,86.6730412 114.199433,88.7368421 L114.199433,118.631579 L114.199433,107.421058 C114.199433,105.357252 115.878365,103.684211 117.949433,103.684211 C120.020501,103.684211 121.699433,105.357252 121.699433,107.421053 L121.699433,111.157895 L121.950274,111.157895 L121.699433,111.157895 L121.699433,109.468384 C121.699433,107.225673 123.378365,105.552632 125.449433,105.552632 C127.520501,105.552632 129.199433,107.225673 129.199433,109.289474 C129.199433,109.329458 129.199433,109.952266 129.199433,111.157895 L128.948591,111.157895 L129.199433,111.157895 C129.199433,109.094094 130.878365,107.421053 132.949433,107.421053 C135.020501,107.421053 136.699433,109.094094 136.699433,111.157895 L136.699433,122.368421 L129.199433,122.368421 L136.699433,122.368421 L133.183808,133.578947 L133.183808,151.956543 L128.699433,151.956543 L110.800995,152 L110.800995,133.721614 Z" id="hand" fill="#EC914A" fill-rule="nonzero"></path>
                    </g>
                </g>
            </g>
        </g>
    </g>
</svg>