<?xml version="1.0" encoding="UTF-8"?>
<svg width="16px" height="15px" viewBox="0 0 16 15" version="1.1" xmlns="http://www.w3.org/2000/svg" xmlns:xlink="http://www.w3.org/1999/xlink">
    <!-- Generator: Sketch 46.2 (44496) - http://www.bohemiancoding.com/sketch -->
    <title>icon_q_phone</title>
    <desc>Created with Sketch.</desc>
    <defs></defs>
    <g id="內頁" stroke="none" stroke-width="1" fill="none" fill-rule="evenodd">
        <g id="Large-Devices:-Desktops---12-col" transform="translate(-889.000000, -122.000000)" fill-rule="nonzero" fill="#FFFFFF">
            <g id="Content" transform="translate(36.000000, 97.000000)">
                <g id="btn-grop" transform="translate(716.250000, 15.500000)">
                    <g id="btn-新增測驗" transform="translate(123.750000, 0.000000)">
                        <g id="Group-2" transform="translate(13.000000, 7.000000)">
                            <g id="ic_quiz_w" transform="translate(0.000000, 2.000000)">
                                <path d="M2.68,0.575 L13.4266667,0.575 C14.5680551,0.575 15.4933333,1.4424483 15.4933333,2.5125 L15.4933333,12.5875 C15.4933333,13.6575517 14.5680551,14.525 13.4266667,14.525 L2.68,14.525 C1.53861152,14.525 0.613333333,13.6575517 0.613333333,12.5875 L0.613333333,2.5125 C0.613333333,1.4424483 1.53861152,0.575 2.68,0.575 Z M2.68,2.125 C2.4517223,2.125 2.26666667,2.29848966 2.26666667,2.5125 L2.26666667,12.5875 C2.26666667,12.8015103 2.4517223,12.975 2.68,12.975 L13.4266667,12.975 C13.6549444,12.975 13.84,12.8015103 13.84,12.5875 L13.84,2.5125 C13.84,2.29848966 13.6549444,2.125 13.4266667,2.125 L2.68,2.125 Z M5.54026667,4.26963636 L12.5624242,4.26963636 L12.5624242,5.194 L5.54026667,5.194 L5.54026667,4.26963636 Z M5.54026667,8.01218182 L5.54026667,7.08781818 L12.5624242,7.08781818 L12.5624242,8.01218182 L5.54026667,8.01218182 Z M5.54026667,10.8303636 L5.54026667,9.906 L12.5624242,9.906 L12.5624242,10.8303636 L5.54026667,10.8303636 Z M4.03723636,9.658 C4.24565761,9.658 4.42401542,9.72939323 4.57231515,9.87218182 C4.72061488,10.0149704 4.79476364,10.1803021 4.79476364,10.3681818 C4.79476364,10.5560615 4.71861086,10.7195145 4.56630303,10.8585455 C4.4139952,10.9975765 4.23764141,11.0670909 4.03723636,11.0670909 C3.83683132,11.0670909 3.66248155,10.9975765 3.51418182,10.8585455 C3.36588209,10.7195145 3.29173333,10.5560615 3.29173333,10.3681818 C3.29173333,10.1803021 3.36387807,10.0149704 3.5081697,9.87218182 C3.65246133,9.72939323 3.82881512,9.658 4.03723636,9.658 Z M4.03723636,4.02163636 C4.24565761,4.02163636 4.42401542,4.09115082 4.57231515,4.23018182 C4.72061488,4.36921282 4.79476364,4.53642327 4.79476364,4.73181818 C4.79476364,4.9272131 4.72061488,5.09254478 4.57231515,5.22781818 C4.42401542,5.36309159 4.24565761,5.43072727 4.03723636,5.43072727 C3.82881512,5.43072727 3.65246133,5.36309159 3.5081697,5.22781818 C3.36387807,5.09254478 3.29173333,4.9272131 3.29173333,4.73181818 C3.29173333,4.53642327 3.36387807,4.36921282 3.5081697,4.23018182 C3.65246133,4.09115082 3.82881512,4.02163636 4.03723636,4.02163636 Z M4.03723636,6.83981818 C4.24565761,6.83981818 4.42401542,6.90933264 4.57231515,7.04836364 C4.72061488,7.18739463 4.79476364,7.35460508 4.79476364,7.55 C4.79476364,7.74539492 4.72061488,7.9107266 4.57231515,8.046 C4.42401542,8.1812734 4.24565761,8.24890909 4.03723636,8.24890909 C3.82881512,8.24890909 3.65246133,8.1812734 3.5081697,8.046 C3.36387807,7.9107266 3.29173333,7.74539492 3.29173333,7.55 C3.29173333,7.35460508 3.36387807,7.18739463 3.5081697,7.04836364 C3.65246133,6.90933264 3.82881512,6.83981818 4.03723636,6.83981818 Z" id="icon_q_phone"></path>
                            </g>
                        </g>
                    </g>
                </g>
            </g>
        </g>
    </g>
</svg>