<?xml version="1.0" encoding="UTF-8"?>
<svg width="140px" height="64px" viewBox="0 0 140 64" version="1.1" xmlns="http://www.w3.org/2000/svg" xmlns:xlink="http://www.w3.org/1999/xlink">
    <!-- Generator: Sketch 46.2 (44496) - http://www.bohemiancoding.com/sketch -->
    <title>logo_white</title>
    <desc>Created with Sketch.</desc>
    <defs></defs>
    <g id="Symbols" stroke="none" stroke-width="1" fill="none" fill-rule="evenodd">
        <g id="logo_white" fill-rule="nonzero">
            <g id="愛上互動LOGO" transform="translate(1.000000, 0.000000)">
                <path d="M35,29.3417089 L35,14 L42.4413068,14 L42.4413068,28.8186032 C42.4413068,31.6343831 43.93121,33.3385633 46.9807913,33.3385633 C50.5516336,33.3385633 52.5586932,31.4096111 52.5586932,27.6170949 L52.5586932,27.2983273 L60,27.2983273 L60,39.3420184 L52.5627976,39.3420184 L52.5627976,36.0726079 C50.921031,38.8148259 48.1710721,39.9999873 44.6002298,39.9999873 C38.9443441,40.0081608 35,36.0807814 35,29.3417089 Z" id="Shape" fill="#F6AC19"></path>
                <path d="M53,13.6579692 L60.4400854,13.6579692 L60.4400854,16.9273813 C62.0815824,14.1851619 64.83109,13 68.401346,13 C74.0563033,13 78,16.9273813 78,23.6705439 L78,39 L70.5599146,39 L70.5599146,24.1773027 C70.5599146,21.3615215 69.0702561,19.6573405 66.0211753,19.6573405 C62.4509192,19.6573405 60.4441891,21.5822069 60.4441891,25.3788117 L60.4441891,25.7302735 L53,25.7302735 L53,13.6579692 Z" id="Shape" fill="#29933A"></path>
                <path d="M11,34.9035863 L15.6655525,30.7048818 C17.2549009,32.7514328 19.6882135,33.9406034 22.2594243,33.9273358 C24.9272052,33.9273358 25.9608171,33.1000049 25.9608171,32.0534312 C25.9608171,30.8538014 25.2213556,30.3284463 21.0583101,29.4266555 C15.8003714,28.3014855 12.6872795,25.827766 12.6872795,21.0995698 C12.6872795,16.3010504 16.3151346,13 22.0224698,13 C26.018013,13 28.8369545,14.2740896 31.3535747,16.5244297 L27.4438254,21.1037064 C26.0572825,19.7379447 24.1937228,18.9825782 22.2594243,19.0022859 C20.3311049,19.0022859 19.3710306,19.8296168 19.3710306,20.8017306 C19.3710306,22.0758203 20.3351903,22.5267156 24.5554318,23.3499099 C30.2750232,24.4750799 33,27.325235 33,31.5239394 C33,36.6988944 29.3721448,39.9999448 22.4064995,39.9999448 C18.0634778,40.0116565 13.9188477,38.1598595 11,34.9035863 Z" id="Shape" fill="#29933A"></path>
                <polygon id="Shape" fill="#29933A" points="2 14 10 14 10 40 2 40"></polygon>
                <path d="M1,5.5 C1,3.01471863 3.01471863,1 5.5,1 C7.98528137,1 10,3.01471863 10,5.5 C10,7.98528137 7.98528137,10 5.5,10 C3.02098237,9.98494264 1.01505736,7.97901763 1,5.5 Z" id="Shape" fill="#F6AC19"></path>
                <path d="M0,6 C0.163865546,3.53361345 3.78151261,0.105042017 6,0 C8.30252101,0.117647059 11.8403361,3.53361345 12,6 C11.8403361,8.46218487 8.30252101,11.8823529 6,12 C3.78151261,11.894958 0.163865546,8.46638655 0,6 Z" id="Shape" fill="#F6AC19"></path>
                <path d="M106.905787,37.710967 L102.433041,37.710967 C104.144473,28.5659739 105.000189,23.7748775 105.000189,23.3376777 C105.000189,22.1848071 104.313675,21.6083718 102.940646,21.6083718 L90.487689,21.6083718 C90.7234616,20.6030909 91.0008412,19.5059145 91.3198277,18.3168426 L106.581253,18.3168426 C107.321857,18.3168426 107.692158,17.9144517 107.692158,17.1096701 C107.733677,16.8043854 107.629381,16.4973188 107.410731,16.2810976 C107.192082,16.0648764 106.88468,15.9648166 106.581253,16.0111013 L83.4977231,16.0111013 C83.1971019,15.96813 82.8939343,16.0703084 82.6800403,16.2866896 C82.4661462,16.5030709 82.3666856,16.8082027 82.411782,17.1096701 C82.411782,17.9144517 82.7737624,18.3168426 83.4977231,18.3168426 L88.9440715,18.3168426 C86.774963,26.9550182 85.6904088,31.5261224 85.6904088,32.0301552 C85.6904088,33.2554283 86.340864,33.8680649 87.6417743,33.8680649 L100.727157,33.8680649 C100.527443,35.0209355 100.301379,36.3019029 100.048964,37.710967 L83.0899751,37.710967 C82.7933219,37.670678 82.4949085,37.7714579 82.2828248,37.9835573 C82.0707412,38.1956567 81.969207,38.4948538 82.0081947,38.7928275 C82.0081947,39.5976092 82.370175,40 83.0941358,40 L106.905787,40 C107.626974,40 107.988955,39.5976092 107.991728,38.7928275 C108.03101,38.4940266 107.928963,38.1939615 107.715867,37.9816664 C107.502771,37.7693713 107.203106,37.6692341 106.905787,37.710967 Z M101.10578,31.5623236 L88.9440715,31.5623236 C88.4198241,31.5623236 88.1577003,31.4230881 88.1577003,31.1446169 C88.1577003,30.8661457 88.7623879,28.3696517 89.9717629,23.6551348 L101.729884,23.6551348 C102.145953,23.6551348 102.353988,23.8110787 102.353988,24.1229664 C102.353988,24.2928338 101.937919,26.7726196 101.10578,31.5623236 Z" id="Shape" fill="#FFFFFF"></path>
                <path d="M135.846575,19.9686018 L133.015068,19.9686018 C133.069863,18.7319947 133.09726,17.4503455 133.09726,16.1236544 C133.144685,15.8184338 133.044095,15.5088818 132.826126,15.2892795 C132.608157,15.0696771 132.298616,14.9660236 131.991781,15.009889 C131.252055,15.009889 130.882192,15.3415618 130.882192,16.0049073 C130.882192,17.3507072 130.845205,18.6692089 130.771233,19.9604124 L128.219178,19.9604124 C127.479452,19.9604124 127.109589,20.3193833 127.109589,21.0373252 C127.109589,21.7552671 127.479452,22.1142381 128.219178,22.1142381 L130.660274,22.1142381 C130.550685,23.6920724 130.375342,25.2248647 130.134247,26.7126151 C129.507684,30.7252471 128.173414,34.5957464 126.193151,38.1450893 C126.102467,38.3605801 126.037635,38.5859853 126,38.8166243 C126,39.6055414 126.410959,40 127.232877,40 C127.614008,39.9867494 127.973823,39.8215087 128.231507,39.5413907 C130.289549,35.7823277 131.679885,31.6970572 132.341096,27.4660446 C132.60137,25.7626387 132.79589,23.9787032 132.924658,22.1142381 L134.757534,22.1142381 C135.423288,22.1142381 135.756164,22.473209 135.756164,23.191151 C135.756164,26.668938 135.709589,29.6458036 135.616438,32.1217477 C135.506849,34.32744 135.284932,35.8288394 134.950685,36.625946 C134.616438,37.4230526 134.108219,37.8325252 133.426027,37.8543637 C132.648616,37.7809319 131.893946,37.5525648 131.206849,37.1828287 C130.541096,37.1828287 130.208219,37.6127749 130.208219,38.4726673 C130.184716,38.9441094 130.518076,39.358863 130.984932,39.4390226 C131.825148,39.779819 132.720499,39.9657336 133.627397,39.9877158 C134.766368,40.0555948 135.857846,39.5242587 136.50411,38.5873196 C137.09589,37.7083185 137.493151,35.8520429 137.69589,33.0184927 C137.89863,29.7727401 138,26.2048691 138,22.3148797 C137.989041,20.7506944 137.271233,19.9686018 135.846575,19.9686018 Z" id="Shape" fill="#FFFFFF"></path>
                <path d="M124.437887,36.4067405 C123.014847,36.682086 121.483795,36.9078694 119.844733,37.0840905 L119.844733,34.9694366 L124.437887,34.9694366 C125.094052,34.9694366 125.422135,34.6527893 125.422135,34.0194945 C125.451732,33.7486274 125.355948,33.479153 125.163026,33.2905262 C124.970103,33.1018994 124.702045,33.0156326 124.437887,33.0571617 L119.840683,33.0571617 L119.840683,31.2770527 L123.587303,31.2770527 C124.880731,31.2770527 125.527445,30.6712925 125.527445,29.459772 L125.527445,24.2268297 C125.527445,22.996035 124.880731,22.3806377 123.587303,22.3806377 L119.840683,22.3806377 L119.840683,20.968115 L125.008994,20.968115 C125.275504,21.0104963 125.546056,20.9227198 125.739552,20.7310962 C125.933048,20.5394726 126.026998,20.2662743 125.993241,19.9933917 C125.993241,19.3600969 125.665159,19.0434495 125.008994,19.0434495 L119.840683,19.0434495 L119.840683,17.5524533 C121.244822,17.4808635 122.411337,17.3899994 123.340229,17.2798612 C124.215115,17.1366815 124.652559,16.7388072 124.652559,16.0862382 C124.652559,15.3620794 124.333927,15 123.696664,15 C121.617458,15.2891128 119.785327,15.4887384 118.20027,15.5988766 C116.615214,15.7090148 114.909995,15.7723443 113.084614,15.788865 C112.820028,15.7508093 112.553147,15.84052 112.362624,16.0315586 C112.1721,16.2225973 112.079649,16.4931889 112.112518,16.7635883 C112.112518,17.4877471 112.549961,17.8498265 113.424848,17.8498265 C114.234928,17.8498265 115.647168,17.7864971 117.661567,17.6598381 L117.661567,19.0434495 L111.991006,19.0434495 C111.334841,19.0434495 111.006759,19.3600969 111.006759,19.9933917 C110.973002,20.2662743 111.066952,20.5394726 111.260448,20.7310962 C111.453944,20.9227198 111.724496,21.0104963 111.991006,20.968115 L117.661567,20.968115 L117.661567,22.3806377 L113.833938,22.3806377 C112.613418,22.3806377 112.003157,22.996035 112.003157,24.2268297 L112.003157,29.459772 C112.003157,30.6712925 112.613418,31.2770527 113.833938,31.2770527 L117.661567,31.2770527 L117.661567,33.0571617 L112.732229,33.0571617 C112.465719,33.0147804 112.195167,33.1025569 112.001671,33.2941805 C111.808175,33.4858041 111.714225,33.7590024 111.747982,34.031885 C111.747982,34.6651798 112.076065,34.9818272 112.732229,34.9818272 L117.653466,34.9818272 L117.653466,37.3153808 C115.903693,37.4778347 114.05401,37.5769591 112.104417,37.612754 C111.375345,37.6292747 111.010809,37.9913541 111.010809,38.6989922 C111.010809,39.5663307 111.375345,40 112.104417,40 C115.987401,39.6668319 120.062105,39.1422986 124.328527,38.4264001 C124.609187,38.4441375 124.882788,38.3322189 125.073618,38.1216152 C125.264447,37.9110114 125.352266,37.6240577 125.312774,37.3401619 C125.312774,36.7178809 125.021145,36.4067405 124.437887,36.4067405 Z M115.705224,29.3399967 L114.729077,29.3399967 C114.272732,29.3399967 114.044559,29.0963159 114.044559,28.6089542 L114.044559,25.1189493 C114.044559,24.5930393 114.272732,24.3300843 114.729077,24.3300843 L115.587762,24.3300843 C116.344932,23.3973545 117.470529,22.8574624 118.657966,22.8574624 C119.845402,22.8574624 120.970999,23.3973545 121.728169,24.3300843 L122.716467,24.3300843 C123.207916,24.3300843 123.45364,24.5930393 123.45364,25.1189493 L123.45364,25.8499917 L123.429338,25.8499917 L123.429338,27.6879233 L123.45364,27.6879233 L123.45364,28.5841731 C123.487877,28.7934047 123.420892,29.0066144 123.273795,29.1566088 C123.126698,29.3066033 122.917607,29.374908 122.712417,29.3399967 L121.602607,29.3399967 C120.847918,30.1881523 119.777036,30.6718409 118.653915,30.6718409 C117.530795,30.6718409 116.459912,30.1881523 115.705224,29.3399967 L115.705224,29.3399967 Z" id="Shape" fill="#FFFFFF"></path>
                <path d="M118.917871,24.0000829 C117.271904,24.0451711 115.969889,25.4087265 116.00053,27.0553131 C116.031171,28.7018998 117.383014,30.0160533 119.029518,29.9998518 C120.676023,29.9836503 122.001754,28.6431497 121.999998,26.9962788 C121.964583,25.3226462 120.591541,23.987886 118.917871,24.0000829 L118.917871,24.0000829 Z" id="Shape" fill="#F6AC19"></path>
                <path d="M14.1421856,46 C14.5702396,46 14.7842666,46.206034 14.7842666,46.6181021 C14.7842666,47.0301701 14.5702396,47.2362041 14.1421856,47.2362041 L9.02611693,47.2362041 L9.02611693,47.9795972 L14.5825873,47.9795972 C15.0140585,47.9525423 15.432076,48.1374317 15.7062291,48.4765846 C15.9247183,48.8212518 16.0259163,49.2290565 15.9943423,49.6376142 C15.9861128,50.0021247 15.926514,50.3635641 15.8173585,50.7109401 C15.7114282,51.0424326 15.3884949,51.2509544 15.0476844,51.2079275 C14.6196304,51.2079275 14.4056034,51.0018935 14.4056034,50.5898255 C14.5196475,50.3053969 14.5997897,50.0081603 14.6443258,49.704436 C14.6443258,49.3424844 14.4728298,49.1615085 14.1298378,49.1615085 L9.02611693,49.1615085 L9.02611693,52.3063116 C9.02611693,52.7211639 8.81208992,52.9271979 8.38403591,52.9244137 C7.9559819,52.9216294 7.73646702,52.7155954 7.72549128,52.3063116 L7.72549128,49.1615085 L2.91811545,49.1615085 C2.49006143,49.1615085 2.27603443,49.3675426 2.27603443,49.7796106 L2.27603443,50.7568801 C2.27603443,51.1717324 2.06200742,51.3777664 1.63395341,51.3749822 C1.2058994,51.3721979 0.994616328,51.1661639 1.0001042,50.7568801 L1.0001042,49.3452686 C1.0001042,48.434821 1.47068922,47.9795972 2.41185926,47.9795972 L7.72960718,47.9795972 L7.72960718,47.2362041 L2.74113158,47.2362041 C2.31307756,47.2362041 2.09905056,47.0301701 2.09905056,46.6181021 C2.09905056,46.206034 2.31307756,46 2.74113158,46 L14.1421856,46 Z M14.5825873,55.4093511 C14.9777141,55.4093511 15.1752774,55.6000717 15.1752774,55.9815131 C15.2012944,56.1491388 15.1479594,56.3194057 15.0313371,56.4410281 C14.9147149,56.5626506 14.7484369,56.6214128 14.5825873,56.5996152 L6.84468783,56.5996152 L5.17774672,58.3829232 L12.3147242,58.1198121 L11.6561796,57.7021756 C11.5390973,57.5930241 11.4645952,57.4447958 11.4462685,57.2845391 C11.4265616,57.1252221 11.4814046,56.9657194 11.5945041,56.8534176 C11.7076036,56.7411159 11.8659481,56.6889349 12.022495,56.712377 C12.184339,56.7214354 12.3426325,56.7640776 12.4875922,56.837668 C13.0007082,57.1383663 13.4712932,57.4279276 13.8993472,57.706352 C14.5485646,58.1238985 15.1700335,58.584291 15.7597358,59.0845525 C15.8028711,59.1978084 15.8251911,59.3181251 15.8255903,59.4395436 C15.8255903,59.8126322 15.6115633,59.9991765 15.1835093,59.9991765 C15.0005499,60.0061344 14.8185765,59.9689188 14.6525576,59.890591 C14.378164,59.6427934 14.1161182,59.4256224 13.86642,59.239078 C13.7511572,59.2957533 13.6239927,59.3229935 13.4959886,59.318429 L1.63395341,59.7611237 C1.21138727,59.7611237 1.0001042,59.5550897 1.0001042,59.1430216 C1.0001042,58.7309536 1.21413121,58.5249196 1.64218522,58.5249196 L3.58077598,58.4455686 L5.29710794,56.5996152 L2.09905056,56.5996152 C1.71489952,56.5996152 1.522824,56.3935811 1.522824,55.9815131 C1.50311712,55.8221961 1.55796011,55.6626934 1.67105962,55.5503917 C1.78415913,55.4380899 1.94250368,55.3859089 2.09905056,55.4093511 L14.5825873,55.4093511 Z M13.9405063,53.488223 C14.335633,53.488223 14.5331964,53.6747673 14.5331964,54.047856 C14.5331964,54.471061 14.335633,54.6826635 13.9405063,54.6826635 L2.97985401,54.6826635 C2.59570297,54.6826635 2.40362745,54.471061 2.40362745,54.047856 C2.40362745,53.6747673 2.59570297,53.488223 2.97985401,53.488223 L13.9405063,53.488223 Z M6.35077935,51.5462131 C6.73493039,51.5462131 6.92700591,51.7327575 6.92700591,52.1058461 C6.94671279,52.265163 6.8918698,52.4246658 6.77877029,52.5369675 C6.66567078,52.6492693 6.50732623,52.7014503 6.35077935,52.6780081 L3.57254418,52.6780081 C3.1774174,52.6780081 2.97985401,52.4872875 2.97985401,52.1058461 C2.97985401,51.7244047 3.1774174,51.5378604 3.57254418,51.5462131 L6.35077935,51.5462131 Z M6.4001702,49.8255506 C6.79529698,49.8255506 6.99286037,50.0120949 6.99286037,50.3851836 C6.99286037,50.7582722 6.79529698,50.939248 6.4001702,50.9281111 L3.62193502,50.9281111 C3.23778399,50.9281111 3.04570847,50.7471352 3.04570847,50.3851836 C3.04570847,50.0232319 3.23778399,49.8366876 3.62193502,49.8255506 L6.4001702,49.8255506 Z M13.265498,49.7629051 C13.6606248,49.7629051 13.8581882,49.943881 13.8581882,50.3058326 C13.8581882,50.6677843 13.6606248,50.8543286 13.265498,50.8654656 L10.3843652,50.8654656 C9.98923845,50.8654656 9.79167506,50.6789213 9.79167506,50.3058326 C9.79167506,49.932744 9.98923845,49.7517682 10.3843652,49.7629051 L13.265498,49.7629051 Z M13.3313525,51.5462131 C13.7155035,51.5462131 13.907579,51.7327575 13.907579,52.1058461 C13.9272859,52.265163 13.8724429,52.4246658 13.7593434,52.5369675 C13.6462439,52.6492693 13.4878994,52.7014503 13.3313525,52.6780081 L10.4502197,52.6780081 C10.0550929,52.6780081 9.85752953,52.4872875 9.85752953,52.1058461 C9.85752953,51.7244047 10.050977,51.5378604 10.437872,51.5462131 L13.3313525,51.5462131 Z" id="Shape" fill="#FFFFFF"></path>
                <path d="M29.2434295,49.4673637 C29.7109883,49.4673637 29.9434085,49.6566827 29.9406902,50.0353207 C29.7504046,52.1969483 29.5696333,53.7962701 29.3983763,54.8332862 C29.2923601,55.5368748 29.1564418,56.2814354 28.9906216,57.0669681 L29.3086703,56.8931902 C29.4066265,56.8194022 29.5223905,56.7753779 29.6430292,56.7660356 C29.7910237,56.7575502 29.9355939,56.8143625 30.0411743,56.9224962 C30.1467548,57.0306299 30.2035456,57.1800481 30.1975756,57.3339927 C30.2312134,57.6106727 30.0801551,57.8758628 29.8305964,57.9782424 C29.2022742,58.3393245 28.5359384,58.6237744 27.8448307,58.8259395 C27.1052986,59.0984273 26.3457512,59.3082116 25.5736367,59.4532354 C25.2039391,59.4334558 25.0136535,59.2031647 25.00278,58.7623622 C24.986988,58.5912948 25.0389456,58.4209252 25.1466662,58.2905575 C25.2543869,58.1601897 25.4085667,58.0810837 25.5736367,58.0714891 C26.1759124,57.9783134 26.7703071,57.8366035 27.3514474,57.6476406 L27.7347369,57.5077706 L27.7347369,57.5077706 C27.9467694,56.4481492 28.1221039,55.4676462 28.2607406,54.5662617 C28.4075323,53.5603278 28.5665566,52.0245832 28.7378136,49.959028 C28.7362637,49.8221309 28.7901718,49.6908674 28.8863545,49.5973387 C28.9825372,49.50381 29.112126,49.4566398 29.2434295,49.4673637 Z M27.8611409,45.13987 C28.3259813,45.13987 28.5584015,45.3489686 28.5584015,45.7671659 L28.5584015,47.3862673 L29.7816658,47.3862673 C30.2057307,47.3862673 30.4177632,47.5953659 30.4177632,48.0135632 C30.4177632,48.4317604 30.2057307,48.640859 29.7816658,48.640859 L25.7041182,48.640859 C25.2800533,48.640859 25.0680208,48.4317604 25.0680208,48.0135632 C25.0680208,47.5953659 25.2800533,47.3862673 25.7041182,47.3862673 L27.2128108,47.3862673 L27.2128108,45.7671659 C27.2100925,45.3517943 27.4262025,45.1441085 27.8611409,45.1441085 L27.8611409,45.13987 Z M26.06702,49.5267025 C26.3219689,49.503915 26.5676858,49.6316226 26.7031174,49.8573043 C26.8200071,51.0412546 26.9368968,52.965527 27.0537865,55.6301215 C27.0864069,56.1754733 27.102717,56.5526985 27.102717,56.7617971 C27.102717,57.1404352 26.8906846,57.3297542 26.4666196,57.3297542 C26.3135507,57.3470982 26.1607909,57.294401 26.0480701,57.185368 C25.9353493,57.076335 25.8738083,56.9217425 25.8794528,56.7617971 C25.8060569,54.3289065 25.7109141,52.2520486 25.5940244,50.5312235 L25.5940244,49.9632665 C25.5804326,49.6750494 25.7380978,49.5309409 26.06702,49.5309409 L26.06702,49.5267025 Z M39.4128332,50.0310822 C39.8042777,50.0310822 40,50.2246397 40,50.6117547 C40,50.9988697 39.8042777,51.1881888 39.4128332,51.1797118 L35.4698447,51.1797118 L34.8500574,52.5656965 L38.5198502,52.5656965 C39.3136128,52.5656965 39.7104941,52.9429217 39.7104941,53.6973721 L39.7104941,58.9658096 C39.7104941,59.6467929 39.3136128,59.9872845 38.5198502,59.9872845 C38.1872638,60.0198241 37.8523347,59.959849 37.5493939,59.8135066 C37.3407443,59.7299793 37.1976049,59.5282875 37.1824146,59.2964114 C37.1605831,59.1485135 37.2030516,58.9981741 37.2983423,58.8860245 C37.3936331,58.773875 37.5319085,58.7114933 37.6757979,58.7157389 L38.0101568,58.7793162 C38.3064586,58.7793162 38.4546095,58.7001978 38.4546095,58.541961 L38.4546095,54.2526137 C38.4546095,53.8852783 38.2847117,53.7016106 37.944916,53.7016106 L37.0763984,53.7016106 L37.0763984,59.0505793 C37.0763984,59.4179147 36.8643659,59.6015824 36.440301,59.6015824 C36.0597299,59.6015824 35.8694443,59.4179147 35.8694443,59.0505793 L35.8694443,53.7016106 L34.4708455,53.7016106 L34.4708455,59.0505793 C34.4708455,59.4179147 34.258813,59.6015824 33.8347481,59.6015824 C33.454177,59.6015824 33.2638914,59.4179147 33.2638914,59.0505793 L33.2638914,53.7016106 L32.3709085,53.7016106 C32.0311129,53.7016106 31.8612151,53.8852783 31.8612151,54.2526137 L31.8612151,59.3387963 C31.8612151,59.703969 31.5764245,60 31.2251176,60 C30.8738107,60 30.5890202,59.703969 30.5890202,59.3387963 L30.5890202,53.7016106 C30.5890202,52.9471602 31.0130852,52.569935 31.8612151,52.569935 L33.5248545,52.569935 L34.1446417,51.1839503 L30.8948363,51.1839503 C30.7432699,51.2082424 30.5895768,51.1566257 30.4803364,51.0447436 C30.3710961,50.9328615 30.319168,50.7738844 30.3402898,50.6159932 C30.3184485,50.4568716 30.3696376,50.29631 30.4785762,50.182239 C30.5875149,50.068168 30.7416008,50.0137836 30.8948363,50.0353207 L39.4128332,50.0310822 Z M31.5309337,45.5679571 C31.9549986,45.5679571 32.1670311,45.7770557 32.1670311,46.1952529 L32.1670311,47.5176604 C32.1670311,47.8002261 32.3029494,47.9415089 32.5747859,47.9415089 L34.5442414,47.9415089 L34.5442414,45.6272958 C34.5442414,45.2090986 34.7562738,45 35.1803388,45 C35.6044037,45 35.8164362,45.2090986 35.8164362,45.6272958 L35.8164362,47.9415089 L37.7858917,47.9415089 C38.0305445,47.9415089 38.152871,47.8002261 38.152871,47.5176604 L38.152871,46.1952529 C38.152871,45.7770557 38.3649034,45.5679571 38.7889684,45.5679571 C39.2130333,45.5679571 39.4250658,45.7770557 39.4250658,46.1952529 L39.4250658,47.9584628 C39.4250658,48.7242159 39.017311,49.1070924 38.2018015,49.1070924 L32.0854802,49.1070924 C31.2699707,49.1070924 30.8622159,48.7242159 30.8622159,47.9584628 L30.8622159,46.1952529 C30.8839628,45.7770557 31.1068688,45.5679571 31.5309337,45.5679571 Z" id="Shape" fill="#FFFFFF"></path>
                <path d="M51.070707,45 L53.4033438,45 C54.1822754,45 54.5717412,45.3617886 54.5717412,46.0853659 L54.5717412,57.2479675 C54.5717412,58.2235772 54.0478335,58.7113821 53.000018,58.7113821 C52.587023,58.7128071 52.1766784,58.6468612 51.7858826,58.5162602 C51.4887183,58.4343767 51.2965473,58.1534263 51.3326609,57.8536585 C51.3326609,57.4119241 51.5267008,57.1910569 51.9147806,57.1910569 L52.8045921,57.4471545 C53.117828,57.4471545 53.2744459,57.3211382 53.2744459,57.0691057 L53.2744459,53.5243902 L51.153867,53.5243902 C51.1234585,54.1965642 51.058233,54.8668001 50.9584411,55.5325203 C50.8584574,56.4408 50.7015445,57.3422238 50.4885873,58.2317073 C50.3988627,58.5736274 50.0710605,58.8032717 49.7110417,58.7764228 C49.2342579,58.7764228 48.997252,58.5758808 49.000024,58.1747967 C49.0168107,58.0774788 49.0390197,57.9811294 49.066552,57.8861789 C49.3146238,57.0199941 49.503536,56.138648 49.6320397,55.2479675 C49.8234303,54.1359495 49.9152542,53.0097312 49.9064676,51.8821138 L49.9064676,46.0853659 C49.9036956,45.3617886 50.2917754,45 51.070707,45 Z M51.1996049,48.7398374 L53.2786039,48.7398374 L53.2786039,46.6504065 C53.2786039,46.2791328 53.121986,46.0934959 52.8087501,46.0934959 L51.5114548,46.0934959 C51.3063269,46.0934959 51.2037629,46.2791328 51.2037629,46.6504065 L51.1996049,48.7398374 Z M51.1996049,52.3739837 L53.2786039,52.3739837 L53.2786039,49.902439 L51.1996049,49.902439 L51.1996049,52.3739837 Z M60.0769305,46.3252033 L57.4199698,46.3252033 C57.07347,46.3252033 56.9002201,46.4864499 56.9002201,46.8089431 L56.9002201,49.902439 L62.991687,49.902439 C63.5100507,49.902439 63.7692326,50.2195122 63.7692326,50.8536585 C63.7499315,51.2534804 63.6743772,51.6487961 63.5447007,52.0284553 C63.2789446,52.8474733 62.9365406,53.6408016 62.5218332,54.398374 C62.2302328,54.8934904 61.9109697,55.3725352 61.5654937,55.8333333 C61.7414818,55.9847237 61.9307015,56.1207454 62.1309814,56.2398374 C62.9285067,56.7302944 63.7756832,57.1389639 64.6590442,57.4593496 C64.8584107,57.5740615 64.9862532,57.7783043 65,58.004065 C65,58.4864499 64.7629941,58.7276423 64.2889824,58.7276423 C64.0901717,58.7137978 63.8970053,58.6568657 63.7234946,58.5609756 C62.8434721,58.231135 62.0061334,57.80136 61.2286959,57.2804878 L60.6299442,56.8739837 C59.9608073,57.5975486 59.1792193,58.2135045 58.3139394,58.699187 C58.215893,58.7642938 58.1056864,58.8098773 57.9896155,58.8333333 C57.5128318,58.8333333 57.2758259,58.5921409 57.2785979,58.1097561 C57.2753491,57.8233644 57.4471166,57.562677 57.7151877,57.4471545 C58.4204848,57.0422752 59.0737643,56.5564459 59.6611307,56 C59.4107661,55.7687793 59.182515,55.5156966 58.979219,55.2439024 C58.2902333,54.2524152 57.7810595,53.1523257 57.4740238,51.9918699 C57.4740238,51.5907859 57.6902397,51.3902439 58.1226715,51.3902439 C58.3998713,51.3902439 58.5939112,51.5514905 58.7047912,51.8739837 C59.0102378,52.8165138 59.4816217,53.6996863 60.0977205,54.4837398 C60.2383133,54.6630738 60.3896524,54.8341053 60.5509422,54.995935 C60.8471411,54.6098593 61.1126442,54.2021618 61.3451198,53.7764228 C61.6856415,53.1549883 61.964128,52.5029242 62.1767194,51.8292683 C62.2507081,51.6452706 62.2996371,51.4525631 62.3222493,51.2560976 C62.3222493,51.1056911 62.2806694,51.0284553 62.1933514,51.0284553 L56.9002201,51.0284553 L56.9002201,58.398374 C56.9002201,58.799458 56.6784602,59 56.2349404,59 C55.7914206,59 55.5752047,58.799458 55.5862927,58.398374 L55.5862927,46.3292683 C55.5862927,45.5758808 56.0242685,45.199187 56.9002201,45.199187 L62.4511473,45.199187 C63.2827469,45.199187 63.6985467,45.6219512 63.6985467,46.4674797 C63.7028854,47.0235462 63.6541644,47.5787965 63.5530167,48.1260163 C63.5111921,48.4908509 63.3034788,48.8178528 62.987529,49.0162602 C62.5563199,49.1868299 62.0925553,49.2644758 61.6278637,49.2439024 C60.8895551,49.2386399 60.1527722,49.1774814 59.4241248,49.0609756 C59.156592,49.013069 58.9644074,48.7820872 58.970903,48.5162602 C58.970903,48.0338753 59.1649429,47.7926829 59.5530227,47.7926829 C60.1939732,47.9218983 60.8449266,47.9980487 61.4989658,48.0203252 C61.6908291,48.0313382 61.8830235,48.0050878 62.0644535,47.9430894 C62.2078964,47.8783165 62.3102281,47.7494721 62.3388813,47.597561 C62.3863414,47.3798223 62.408657,47.1575642 62.4054093,46.9349593 C62.4316924,46.7718019 62.3778118,46.6060736 62.2599969,46.4876931 C62.142182,46.3693126 61.9742034,46.3121167 61.8066576,46.3333333 L60.0769305,46.3252033 Z" id="Shape" fill="#FFFFFF"></path>
                <path d="M73.6129085,50.4090126 L78.5603436,50.4090126 C79.4097809,50.4090126 79.8344996,50.7861974 79.8344996,51.5405672 C79.8272572,51.7833605 79.7851658,52.0238758 79.7095033,52.2548109 C79.5535402,52.7874042 79.3650225,53.3100165 79.1450038,53.8197269 C78.9999393,53.9912248 78.7894076,54.0945257 78.5643757,54.1046218 C78.1020237,54.1046218 77.8721918,53.9253921 77.8748799,53.5669328 C77.8775162,53.4878952 77.8996735,53.4107203 77.9393941,53.3422269 C78.1233166,52.9652083 78.2704911,52.5715092 78.3788973,52.1665336 C78.4234211,52.0677353 78.4493863,51.9616577 78.4555079,51.8535504 C78.4555079,51.6448949 78.3211033,51.5405672 78.052294,51.5405672 L77.2458661,51.5405672 L77.2458661,57.6317017 C77.2458661,58.5439006 76.6598618,59 75.4878533,59 C74.9316296,58.9709989 74.3820973,58.8656758 73.8548369,58.6870168 C73.5627974,58.6395915 73.3489425,58.3876141 73.3508194,58.0931513 C73.339198,57.9391111 73.3942134,57.7874607 73.5020324,57.676332 C73.6098514,57.5652034 73.7602165,57.5051687 73.915319,57.5113235 C74.0046396,57.5135664 74.0936339,57.5229595 74.1814402,57.5394118 C74.6051724,57.673166 75.0415896,57.7632536 75.4838212,57.8082563 C75.6207899,57.8297075 75.759899,57.7855798 75.859126,57.6892034 C75.9583531,57.592827 76.0060612,57.4555044 75.9878386,57.3187185 L75.9878386,53.3943907 C75.7524706,53.8168674 75.4827616,54.2194711 75.1814107,54.5981723 C74.9318936,54.9656833 74.6425291,55.3047794 74.3185329,55.6093487 C74.146861,55.7651851 73.9218526,55.8498722 73.6895191,55.8460924 C73.2271672,55.8460924 72.9973352,55.6628501 73.0000233,55.2963655 C73.0196204,55.1070884 73.0786717,54.9239594 73.1734053,54.7586765 C73.9144928,54.1223438 74.5898675,53.4139475 75.189475,52.6440336 C75.4517008,52.2996214 75.6786314,51.9299572 75.8668744,51.5405672 L73.6371013,51.5405672 C73.2177588,51.5405672 73.0080876,51.342612 73.0080876,50.9467016 C73.0080876,50.5507913 73.2096946,50.3715616 73.6129085,50.4090126 Z M73.9112868,45.345105 L78.3909937,45.345105 C79.0495765,45.345105 79.3788679,45.5885364 79.3788679,46.0753991 C79.3346978,46.4146532 79.205772,46.7374757 79.0038789,47.0143487 C78.7232413,47.4619544 78.3797198,47.8673187 77.9837476,48.2181302 C77.6768359,48.5069926 77.3508488,48.7750982 77.0079699,49.0206512 C77.155815,49.1784804 77.2969399,49.337647 77.4313445,49.4981512 C77.476281,49.6117997 77.4982058,49.7331653 77.4958588,49.8552731 C77.4958588,50.1629061 77.2915637,50.3167227 76.8829736,50.3167227 C76.727501,50.3226831 76.5739823,50.280635 76.4434704,50.1963445 C75.9623017,49.6907563 75.5590878,49.2894958 75.2338285,48.992563 C74.9515788,48.7544818 74.6424481,48.5057002 74.3064365,48.2462184 C74.1821002,48.1351756 74.1079719,47.9789583 74.1007974,47.8128571 C74.1007974,47.4543977 74.2889639,47.275168 74.6652969,47.275168 C74.8253254,47.284201 74.9811662,47.3294915 75.1209286,47.407584 C75.4865093,47.675091 75.8171447,47.942598 76.1128349,48.210105 C76.3819854,48.0447648 76.6393132,47.8610835 76.8829736,47.6603781 C77.1434776,47.4424708 77.3800101,47.1976688 77.588598,46.930084 C77.6998976,46.818545 77.7804412,46.6803494 77.822462,46.5288235 C77.822462,46.4485714 77.7579478,46.4084453 77.6329515,46.4084453 L73.9112868,46.4084453 C73.5349538,46.4084453 73.3467873,46.2292156 73.3467873,45.8707562 C73.3467873,45.5122969 73.5349538,45.3370798 73.9112868,45.345105 L73.9112868,45.345105 Z M80.4635134,52.9088655 L82.6489329,52.9088655 C82.7000067,52.6012325 82.7416721,52.2681862 82.7739292,51.9097269 C82.8061864,51.5512675 83.0158576,51.3921008 83.402943,51.4322269 C83.8222855,51.4322269 84.0319567,51.6114566 84.0319567,51.9699159 C84.0319567,52.3283753 83.9956675,52.6413585 83.923089,52.9088655 L86.5641403,52.9088655 C87.4028253,52.9088655 87.8221678,53.2713375 87.8221678,53.9962815 C87.8474372,55.1631103 87.7583083,56.3296108 87.5560466,57.4792227 C87.5144081,57.9235131 87.2932053,58.3319143 86.9431614,58.6107773 C86.5485726,58.8538528 86.0878062,58.9688369 85.6246518,58.9398109 C84.9150983,58.9062744 84.2129657,58.7808266 83.5360036,58.5666387 C83.2686203,58.4973603 83.0899981,58.2468079 83.112629,57.9727731 C83.112629,57.5367367 83.3223002,57.3187185 83.7416427,57.3187185 C84.3562221,57.5068261 84.9885279,57.6318679 85.628684,57.6918908 C85.8235141,57.7072032 86.0160658,57.6418786 86.1609264,57.5113235 C86.3024335,57.3124703 86.3937161,57.0826166 86.4270476,56.8412185 C86.5453235,56.05788 86.5925554,55.2655418 86.5681724,54.4737815 C86.5681724,54.1848739 86.4162952,54.0404201 86.1125407,54.0404201 L83.7255141,54.0404201 C83.6573405,54.3801822 83.5629783,54.7142158 83.4432644,55.0395588 C83.1709348,55.9495616 82.6618333,56.7718053 81.9675014,57.4230462 C81.193155,58.1150314 80.2847868,58.6421182 79.2982251,58.9719118 L79.1571002,59 C78.6947482,59 78.4649163,58.7619188 78.4676044,58.2857563 C78.4623527,58.0620027 78.6127185,57.8641489 78.8304969,57.8082563 C79.7159876,57.5315339 80.5267029,57.0581636 81.2013949,56.4239076 C81.6988392,55.8787357 82.0740666,55.2345015 82.3021689,54.5339706 C82.3532427,54.3761414 82.4002843,54.2129622 82.4432938,54.0444328 L80.4796419,54.0444328 C80.3171676,54.0653757 80.1542735,54.0089176 80.0400248,53.8920641 C79.925776,53.7752106 79.8735263,53.6116201 79.8990138,53.4505672 C79.8882615,53.0894327 80.076428,52.9088655 80.4635134,52.9088655 L80.4635134,52.9088655 Z M81.7215409,45.000021 C81.8551776,44.9990025 81.9864458,45.0351348 82.100562,45.1043487 C82.2095867,45.1656316 82.2806808,45.2770247 82.2900725,45.4012815 C82.2890008,45.5375053 82.2672505,45.6727859 82.2255583,45.802542 C82.1825488,45.9122198 82.1462595,46.0165476 82.1166905,46.1155252 L87.2979897,46.1155252 C87.6850751,46.1155252 87.8786177,46.2894047 87.8786177,46.6371638 C87.9041053,46.7982167 87.8518556,46.9618072 87.7376068,47.0786607 C87.6233581,47.1955142 87.460464,47.2519723 87.2979897,47.2310294 L86.8423579,47.2310294 C86.8425176,47.3372139 86.8261967,47.442786 86.7939722,47.5440126 C86.5687565,48.1545768 86.2505306,48.7270444 85.8504516,49.2413445 C85.6299224,49.5072826 85.3943317,49.7604878 85.1448272,49.9997269 L85.5480412,50.2083823 C86.0565643,50.4581179 86.5887231,50.6570467 87.1367041,50.8022479 C87.4204256,50.8471296 87.6835467,50.9773527 87.8907142,51.1754201 C87.9659722,51.2729399 88.0044954,51.3936289 87.9995819,51.5164916 C87.9995819,51.915077 87.7899107,52.1130322 87.3705682,52.1103571 C86.9553313,52.0504105 86.549072,51.9399042 86.1609264,51.7813235 C85.5091532,51.5283789 84.8782219,51.2251745 84.2738851,50.8744748 C84.21406,50.843157 84.1561634,50.8083193 84.1005031,50.770147 C83.8585747,50.9199509 83.5964857,51.0684173 83.3142359,51.2155462 C82.6193476,51.5401887 81.8992953,51.8085646 81.1610735,52.0180672 C80.9906885,52.0585021 80.8160896,52.0787059 80.6409275,52.0782563 C80.4716415,52.0772041 80.3089649,52.0127353 80.1852957,51.897689 C80.0742632,51.78041 80.0122694,51.625459 80.0119137,51.4643277 C79.9989658,51.2119449 80.1683184,50.9861119 80.4151277,50.9266386 C81.1182259,50.7622466 81.8030591,50.5283537 82.4594224,50.2284453 L82.9634398,49.9756512 L82.8707006,49.9154621 C82.4586608,49.566968 82.098843,49.1616004 81.8021836,48.7116806 C81.6088515,48.4267774 81.4453678,48.1229071 81.3142948,47.8048319 C81.2040001,47.9755835 81.0827858,48.1391001 80.9514022,48.2943697 C80.7014347,48.5912572 80.4109997,48.8519226 80.0885244,49.0688025 C79.9718479,49.1091317 79.849145,49.1294831 79.7256319,49.1289916 C79.571719,49.127783 79.4254021,49.0622593 79.3224179,48.9484243 C79.2230278,48.8379575 79.1671702,48.6954266 79.1651645,48.5471638 C79.1627925,48.3949209 79.225879,48.2489189 79.3385465,48.1459033 C79.5950529,47.9518114 79.8314346,47.7327054 80.0441709,47.4918487 C80.282958,47.1982262 80.4884942,46.8793046 80.6570561,46.5408613 C80.8535112,46.1773759 81.0064338,45.7922079 81.1126878,45.3932562 C81.1996447,45.1381308 81.4522284,44.9766611 81.7215409,45.0040336 L81.7215409,45.000021 Z M82.2578154,47.2470798 C82.3912101,47.5666635 82.5660783,47.8674906 82.7779614,48.1418907 C83.1243427,48.5831487 83.531573,48.9735466 83.9876032,49.3015336 C84.2945975,49.0653481 84.5745043,48.7962169 84.8222561,48.4990126 C85.1365773,48.122354 85.4008403,47.7069761 85.6085233,47.2631302 L82.2578154,47.2470798 Z" id="Shape" fill="#FFFFFF"></path>
                <path d="M107.846774,47.4506615 C108.026453,47.4473986 108.200687,47.5156512 108.334677,47.6417876 C108.468619,47.7715872 108.543461,47.9555296 108.540323,48.14721 C108.542506,48.2967299 108.504783,48.4438909 108.431452,48.5719347 C107.824353,49.4654537 107.163027,50.3166797 106.451613,51.1202828 C106.05735,51.5469915 105.642842,51.9524141 105.209677,52.3349954 C106.623656,52.3038489 107.959677,52.2613765 109.217742,52.207578 C108.892473,51.7885163 108.547043,51.3637916 108.181452,50.9334039 C108.060603,50.8131645 107.987181,50.6493933 107.975806,50.4747013 C107.975806,50.0952805 108.163978,49.9055702 108.540323,49.9055702 C108.698486,49.9173197 108.853099,49.960556 108.995968,50.0329876 C109.466398,50.5794667 109.896505,51.1047096 110.28629,51.6087162 C110.887298,52.388917 111.438251,53.2104576 111.935484,54.0678722 C111.97805,54.194744 111.999865,54.3283051 112,54.4628661 C112,54.7998144 111.790323,54.9682885 111.370968,54.9682885 C111.221105,54.9698764 111.074026,54.9256134 110.947581,54.8408711 C110.611559,54.2745715 110.302419,53.7804751 110.020161,53.3585819 C109.967867,53.3639782 109.915197,53.3639782 109.862903,53.3585819 C108.25,53.4435269 106.678763,53.5171458 105.149194,53.5794388 L105.149194,59.3004803 C105.172889,59.4937602 105.108941,59.6875293 104.976536,59.8236533 C104.844131,59.9597772 104.658675,60.0224178 104.475806,59.9927816 C104.013441,59.9927816 103.783602,59.7620145 103.78629,59.3004803 L103.78629,53.6389002 C101.670699,53.7125192 99.6182796,53.7705649 97.6290323,53.8130373 C97.2096774,53.8130373 97,53.566697 97,53.0740164 C97,52.6634492 97.2096774,52.4539183 97.6290323,52.4454238 C99.6397849,52.4454238 101.540323,52.4241876 103.330645,52.3817151 C103.916289,51.8874689 104.467441,51.3495133 104.979839,50.7720086 C105.811967,49.8063654 106.583748,48.7848814 107.290323,47.7139908 C107.425667,47.5382344 107.63214,47.4405249 107.846774,47.4506615 L107.846774,47.4506615 Z M101.012097,54.4586189 C101.471774,54.4586189 101.701613,54.6851387 101.701613,55.1381784 C101.679367,55.423334 101.562273,55.6910662 101.370968,55.8941883 C100.513206,57.2157896 99.5057855,58.4224013 98.3709677,59.4873592 C98.2114717,59.5792559 98.032605,59.6274521 97.8508065,59.6275184 C97.3481183,59.6275184 97.0967742,59.3967513 97.0967742,58.9352171 C97.0997906,58.7481358 97.1671266,58.5685568 97.2862903,58.4297947 C98.4824878,57.3512909 99.5434393,56.1167399 100.443548,54.7559262 C100.568797,54.5566761 100.785695,54.4432551 101.012097,54.4586189 L101.012097,54.4586189 Z M110.5,45 C110.919355,45 111.129032,45.2307671 111.129032,45.6923012 C111.129032,46.060396 110.877688,46.2911631 110.375,46.3846025 C108.888441,46.5318404 106.897849,46.6734153 104.403226,46.8093272 L103.758065,46.8390579 C103.72834,47.00457 103.645827,47.1544196 103.524194,47.2637826 C102.861012,48.0567725 102.141167,48.7951195 101.370968,49.472351 C102.074256,49.8876638 102.748062,50.3560865 103.387097,50.8739425 C103.429355,50.9891205 103.451222,51.1114793 103.451613,51.2349585 C103.451613,51.6143792 103.247312,51.8040896 102.83871,51.8040896 C102.664734,51.8102528 102.491891,51.7723847 102.334677,51.6936611 C101.612133,51.1478638 100.862407,50.6431372 100.08871,50.1816412 C99.5752688,49.8758395 99.0040323,49.5558802 98.375,49.2217634 C98.2607223,49.1123657 98.1925236,48.9595256 98.1854839,48.7970387 C98.1854839,48.377977 98.3951613,48.1684462 98.8145161,48.1684462 C98.9626813,48.1784815 99.1070693,48.2219347 99.2379032,48.2958636 C99.5846774,48.462922 99.9099462,48.6313961 100.21371,48.801286 C100.958333,48.118895 101.587366,47.4931339 102.100806,46.9240029 C100.530914,46.9976218 99.3682796,47.0344313 98.6129032,47.0344313 C98.0752688,47.0344313 97.8064516,46.8036642 97.8064516,46.34213 C97.8064516,45.9542148 98.0215054,45.7602572 98.4516129,45.7602572 C100.556452,45.7602572 102.505376,45.7022115 104.298387,45.5861201 C106.091398,45.4700287 108.159946,45.276071 110.504032,45.0042472 L110.5,45 Z M108.080645,54.4586189 C108.232559,54.4650881 108.381832,54.5025928 108.520161,54.5690473 C109.012097,55.1042004 109.451613,55.6237803 109.83871,56.1277869 C110.454892,56.917595 111.027088,57.7443635 111.552419,58.6039319 C111.635191,58.7169768 111.679243,58.8561792 111.677419,58.9989258 C111.677419,59.4179875 111.447581,59.6275184 110.987903,59.6275184 C110.791062,59.6365116 110.595693,59.588005 110.423387,59.4873592 C109.805108,58.456694 109.28629,57.6483013 108.866935,57.0621812 C108.501344,56.5695006 108.098118,56.059831 107.657258,55.5331723 C107.542555,55.4221683 107.469567,55.2714242 107.451613,55.1084476 C107.462366,54.6752285 107.677419,54.4586189 108.096774,54.4586189 L108.080645,54.4586189 Z" id="Shape" fill="#FFFFFF"></path>
                <path d="M123.96026,45.0003553 C124.149418,44.9977665 124.335304,45.0491387 124.495539,45.1482874 C124.634081,45.2354242 124.718124,45.3860832 124.718573,45.5481038 C124.714736,45.6458431 124.692745,45.7420591 124.65369,45.8319734 C124.226123,46.7350843 123.701347,47.5902716 123.088402,48.3828022 L123.02352,48.4427747 C123.339745,48.7236894 123.640269,49.0213243 123.923763,49.3343653 C124.367126,48.6413501 124.783455,47.9296769 125.172749,47.1993456 C125.308679,47.0719929 125.492573,47.0067215 125.679643,47.0194282 C125.823227,47.0189407 125.960284,47.0785147 126.056772,47.1833529 C126.171873,47.2847367 126.235689,47.4310608 126.231144,47.5831694 C126.225991,47.7250826 126.182601,47.8630832 126.105434,47.9829858 C125.655373,48.8293222 125.159944,49.6514414 124.621249,50.4458549 C124.316585,50.8630327 123.988979,51.2634486 123.639903,51.6453042 C124.399567,51.5866644 125.09435,51.502703 125.72425,51.3934198 C125.640443,51.1455336 125.556637,50.9283001 125.47283,50.7417191 C125.435993,50.651111 125.414089,50.5552778 125.407948,50.4578494 C125.407948,50.220625 125.597188,50.1020128 125.975669,50.1020128 C126.142549,50.1054422 126.303618,50.1630621 126.433901,50.2659375 C126.712,50.8607703 126.943812,51.4755952 127.127332,52.105093 C127.16748,52.2457242 127.189283,52.3908275 127.192214,52.5368948 C127.192214,52.8540825 126.961071,53.0126763 126.498783,53.0126763 C126.298729,53.0126763 126.145985,52.8794042 126.040552,52.6128599 C126.030322,52.5475557 126.014033,52.4833154 125.99189,52.420948 L125.927007,52.420948 L124.901054,52.5848727 L124.901054,58.4022016 C124.922041,58.567527 124.86322,58.7329929 124.742144,58.8492265 C124.621067,58.96546 124.451734,59.0190219 124.284672,58.9939299 C123.862936,58.9939299 123.652068,58.7966872 123.652068,58.4022016 L123.652068,52.7727865 C122.924845,52.8607461 122.224655,52.9393766 121.5515,53.0086781 C121.183833,53.0086781 121,52.7661229 121,52.2810123 C121,51.9451665 121.183833,51.7719127 121.5515,51.7612509 C121.729927,51.7612509 121.888078,51.7612509 122.025953,51.7612509 C122.469316,51.2761403 122.874831,50.7963606 123.242498,50.3219118 C123.214974,50.3106383 123.189071,50.2958521 123.16545,50.277932 C122.754528,49.8328031 122.407137,49.4822973 122.123277,49.2264148 C121.868044,48.9915158 121.59709,48.7737918 121.312247,48.5747141 C121.212249,48.4632585 121.151134,48.3231267 121.137875,48.1748977 C121.118459,48.0223786 121.172493,47.8696817 121.283923,47.7621717 C121.395353,47.6546618 121.55136,47.6047072 121.705596,47.6271492 C121.846599,47.6338127 121.984673,47.6692073 122.111111,47.7311014 C122.628433,46.9686695 123.082723,46.1664504 123.469586,45.3322029 C123.540991,45.126981 123.740363,44.9921434 123.96026,45.0003553 Z M122.192214,53.7243495 C122.61395,53.7243495 122.824818,53.8776125 122.824818,54.1841384 C122.820999,54.319633 122.799186,54.4540498 122.759935,54.5839548 C122.665315,55.9166762 122.54366,57.1481108 122.394972,58.2782585 C122.267448,58.4624088 122.053285,58.5694939 121.827251,58.5621282 C121.405515,58.5621282 121.194647,58.4088652 121.194647,58.1023393 C121.194494,57.9768432 121.210852,57.8518575 121.243309,57.73051 C121.410922,56.5817042 121.546094,55.3556005 121.648824,54.052199 C121.702893,53.8336327 121.882671,53.7243495 122.188159,53.7243495 L122.192214,53.7243495 Z M126.174371,53.6643771 C126.403496,53.6421163 126.624931,53.7528374 126.742092,53.9482467 C126.836713,54.4226955 126.931333,55.2036703 127.025953,56.2911709 C127.051906,56.4379077 127.068161,56.586152 127.074615,56.7349672 C127.074615,57.0521549 126.885374,57.2107487 126.506894,57.2107487 C126.128413,57.2107487 125.939173,57.0521549 125.939173,56.7349672 C125.876994,55.7754078 125.798594,54.9597823 125.703974,54.2880907 L125.703974,54.0641935 C125.687753,53.7976492 125.843201,53.6643771 126.170316,53.6643771 L126.174371,53.6643771 Z M131.040552,45.0443351 C131.502839,45.0443351 131.733982,45.2615687 131.733982,45.6960359 L131.733982,46.6595934 L134.941606,46.6595934 C135.363341,46.6595934 135.574209,46.852838 135.574209,47.2393272 C135.574209,47.6258164 135.363341,47.8230592 134.941606,47.8310555 L130.752636,47.8310555 L129.300892,50.8576658 C130.693559,50.7912178 132.081291,50.647053 133.457421,50.4258641 C133.193323,49.9757987 132.897943,49.5442983 132.573398,49.1344571 C132.537439,49.0242974 132.515641,48.9101242 132.508516,48.7946131 C132.508516,48.5067453 132.719384,48.3628114 133.141119,48.3628114 C133.333587,48.3740769 133.51206,48.4656949 133.631792,48.6146957 C134.505862,49.6561589 135.234182,50.8085918 135.797242,52.0411224 C135.837812,52.2210372 135.859553,52.4045809 135.862125,52.5888709 C135.862125,52.9060586 135.609354,53.0646524 135.103812,53.0646524 C134.871317,53.0646524 134.702352,52.9207185 134.596918,52.6328507 C134.407678,52.1983835 134.218437,51.7985671 134.029197,51.4334015 C133.987442,51.438307 133.945243,51.438307 133.903487,51.4334015 L133.092457,51.5653409 L133.092457,56.7869433 C133.073423,56.996347 133.129379,57.20571 133.250608,57.3786716 C133.50057,57.5333279 133.7975,57.5969709 134.090024,57.558589 C134.395512,57.558589 134.573939,57.5039474 134.625304,57.3946643 C134.700782,57.2473089 134.738381,57.0839253 134.734793,56.9188827 L134.734793,55.8193876 C134.734793,55.3635968 134.945661,55.1317033 135.367397,55.123707 C135.789132,55.1157107 136,55.3822549 136,55.9233398 C136,57.0614839 135.95269,57.7278446 135.85807,57.9224219 C135.792516,58.1615769 135.6255,58.3612201 135.399838,58.4701704 C134.988507,58.6489592 134.537484,58.7205494 134.090024,58.678075 C133.130305,58.678075 132.508516,58.5448028 132.224655,58.2782585 C131.916737,57.9265243 131.769978,57.4649428 131.81914,57.0028442 L131.81914,51.7932362 C131.302785,51.8625377 130.791836,51.9265084 130.286294,51.9851481 L130.286294,53.5844138 C130.290252,54.6274703 130.023629,55.6542003 129.51176,56.5670443 C129.058453,57.3841771 128.4467,58.1055184 127.711273,58.6900694 C127.559687,58.7898397 127.385682,58.8516013 127.20438,58.8699868 C126.67721,58.840667 126.406867,58.6234334 126.39335,58.2182861 C126.409062,58.0756614 126.476794,57.9435221 126.583942,57.8464568 C127.438845,57.2286172 128.133578,56.4203518 128.611517,55.4875399 C128.885579,54.8904894 129.030585,54.2437281 129.037307,53.588412 L129.037307,52.1010949 C128.648013,52.1410765 128.268181,52.1757273 127.89781,52.2050471 C127.476075,52.2050471 127.265207,51.9678227 127.265207,51.4933739 C127.265207,51.1175465 127.476075,50.9203037 127.89781,50.9016456 L128.02352,50.9016456 L129.491484,47.8150629 L127.751825,47.8150629 C127.330089,47.8150629 127.119221,47.6178201 127.119221,47.2233346 C127.119221,46.828849 127.330089,46.6356044 127.751825,46.6436008 L130.343066,46.6436008 L130.343066,45.7040322 C130.353879,45.2642341 130.59043,45.0443351 131.052717,45.0443351 L131.040552,45.0443351 Z" id="Shape" fill="#FFFFFF"></path>
            </g>
        </g>
    </g>
</svg>