<?xml version="1.0" encoding="UTF-8"?>
<svg width="22px" height="23px" viewBox="0 0 22 23" version="1.1" xmlns="http://www.w3.org/2000/svg" xmlns:xlink="http://www.w3.org/1999/xlink">
    <!-- Generator: Sketch 44.1 (41455) - http://www.bohemiancoding.com/sketch -->
    <title>ans_o_phone</title>
    <desc>Created with Sketch.</desc>
    <defs></defs>
    <g id="互動作答情境" stroke="none" stroke-width="1" fill="none" fill-rule="evenodd">
        <g id="[學生]---互動作答情境---是非(4張截圖＋文字)" transform="translate(-49.000000, -464.000000)" fill="#000000">
            <g id="選項" transform="translate(24.000000, 450.445313)">
                <path d="M36.1035156,33.584 C37.6635234,33.584 39.1195089,33.1853373 40.4715156,32.388 C41.7888555,31.6253295 42.8288451,30.5853399 43.5915156,29.268 C44.3888529,27.9159932 44.7875156,26.4600078 44.7875156,24.9 C44.7875156,23.3399922 44.3888529,21.8840068 43.5915156,20.532 C42.8288451,19.2146601 41.7888555,18.1746705 40.4715156,17.412 C39.1195089,16.6146627 37.6635234,16.216 36.1035156,16.216 C34.5435078,16.216 33.0875224,16.6146627 31.7355156,17.412 C30.4181757,18.1746705 29.3781861,19.2146601 28.6155156,20.532 C27.8181783,21.8840068 27.4195156,23.3399922 27.4195156,24.9 C27.4195156,26.4600078 27.8181783,27.9159932 28.6155156,29.268 C29.3781861,30.5853399 30.4181757,31.6253295 31.7355156,32.388 C33.0875224,33.1853373 34.5435078,33.584 36.1035156,33.584 Z M36.1035156,14.084 C38.0795255,14.084 39.9081739,14.5779951 41.5895156,15.566 C43.2188571,16.5020047 44.5015109,17.7846585 45.4375156,19.414 C46.4255206,21.0953417 46.9195156,22.9239901 46.9195156,24.9 C46.9195156,26.8760099 46.4255206,28.7046583 45.4375156,30.386 C44.5015109,32.0153415 43.2188571,33.2979953 41.5895156,34.234 C39.9081739,35.2220049 38.0795255,35.716 36.1035156,35.716 C34.1275057,35.716 32.2988574,35.2220049 30.6175156,34.234 C28.9881741,33.2806619 27.7055203,31.9893415 26.7695156,30.36 C25.7815107,28.6786583 25.2875156,26.8586765 25.2875156,24.9 C25.2875156,22.9413235 25.7815107,21.1213417 26.7695156,19.44 C27.7228537,17.8106585 29.0141741,16.5193381 30.6435156,15.566 C32.3248574,14.5779951 34.1448392,14.084 36.1035156,14.084 Z" id="ans_o_phone"></path>
            </g>
        </g>
    </g>
</svg>