<?xml version="1.0" encoding="UTF-8"?>
<svg width="40px" height="40px" viewBox="0 0 40 40" version="1.1" xmlns="http://www.w3.org/2000/svg" xmlns:xlink="http://www.w3.org/1999/xlink">
    <!-- Generator: Sketch 49 (51002) - http://www.bohemiancoding.com/sketch -->
    <title>ic-統計</title>
    <desc>Created with Sketch.</desc>
    <defs></defs>
    <g id="Page-2" stroke="none" stroke-width="1" fill="none" fill-rule="evenodd">
        <g id="ic-統計" fill="#898989">
            <path d="M17.4358974,5.24043212 L17.4358974,22.6692708 L34.3094926,22.6692708 C34.0420086,31.7816544 26.5709929,39.0865385 17.3938301,39.0865385 C8.04747282,39.0865385 0.470753205,31.5098188 0.470753205,22.1634615 C0.470753205,12.8171042 8.04747282,5.24038462 17.3938301,5.24038462 C17.4078566,5.24038462 17.421879,5.24040168 17.4358974,5.24043579 Z" id="Combined-Shape" fill-rule="evenodd"></path>
            <path d="M19.4473658,0.322240019 L20.9375423,0.275447408 C31.1006069,-0.0436800997 39.2568109,9.66786386 39.2568109,18.6176259 L39.2568109,20.1560875 L37.7183494,20.1560875 L33.5352189,20.1560875 L19.4473658,20.1560875 L19.4473658,0.322240019 Z M22.5242889,17.0791644 L36.0821765,17.0791644 C35.2742035,10.6326736 29.5519206,4.03190911 22.5242889,3.39496019 C22.5242889,3.76094041 22.5242889,8.32234181 22.5242889,17.0791644 Z" id="Path-2" fill-rule="nonzero"></path>
        </g>
    </g>
</svg>