<svg width="46" height="46" xmlns="http://www.w3.org/2000/svg">
 <!-- Generator: Sketch 49 (51002) - http://www.bohemiancoding.com/sketch -->
 <title>ic-快速加入互動</title>
 <desc>Created with Sketch.</desc>

 <g>
  <title>background</title>
  <rect fill="none" id="canvas_background" height="402" width="582" y="-1" x="-1"/>
 </g>
 <g>
  <title>Layer 1</title>
  <circle r="22.646154" cy="22.958647" cx="23.036771" fill="#FF7F5C" id="Oval-6"/>
  <text x="0" y="0" fill="#FFFFFF" font-weight="normal" font-size="24" font-family="simple-line-icons" id="">
   <tspan id="svg_1" y="350" x="139"></tspan>
  </text>
  <path stroke="null" fill="#ffffff" id="ic_shortcut_phone" d="m24.852506,12.17464l-7.746011,11.470201l5.700723,0.024096l-1.56661,10.048467l7.746011,-12.385879l-5.700723,-0.024096l1.56661,-9.132789zm0.065282,-1.542211c0.377145,0.016064 0.696271,0.172691 0.957367,0.469893c0.261107,0.297203 0.391661,0.654638 0.391661,1.072318c0,0.064255 -0.003632,0.1245 -0.010884,0.180735c-0.007252,0.056223 -0.018136,0.116468 -0.032641,0.180722l-1.261989,7.253216l4.025316,0c0.261107,0 0.504067,0.076296 0.728912,0.228913c0.224834,0.152617 0.395281,0.357447 0.511319,0.614479c0.116049,0.257031 0.163195,0.530138 0.141438,0.819297c-0.021768,0.289171 -0.105165,0.554234 -0.250223,0.795201l-7.811293,12.385891c-0.145058,0.20884 -0.304621,0.365467 -0.478689,0.469893c-0.174068,0.104414 -0.369893,0.156627 -0.587475,0.156627c-0.101544,0 -0.199457,-0.008032 -0.293748,-0.024096c-0.094281,-0.016064 -0.184941,-0.048191 -0.27198,-0.096394c-0.290106,-0.144585 -0.514951,-0.373499 -0.674503,-0.686765c-0.159563,-0.313266 -0.210341,-0.646606 -0.152311,-1.000019l1.283746,-8.265289l-4.025316,-0.024096c-0.261107,0 -0.504067,-0.076309 -0.728912,-0.228926c-0.224834,-0.152617 -0.395281,-0.357435 -0.511319,-0.614479c-0.116049,-0.257031 -0.163195,-0.530138 -0.141438,-0.819297c0.021768,-0.289171 0.105165,-0.554234 0.250223,-0.795201l7.811293,-11.421997c0.014505,-0.016076 0.025389,-0.03214 0.032641,-0.048203c0.007252,-0.016064 0.018136,-0.032127 0.032641,-0.048191c0.043514,-0.064255 0.09066,-0.12049 0.141427,-0.168681c0.050767,-0.048191 0.105165,-0.08835 0.163184,-0.120478c0.087039,-0.080331 0.1777,-0.140576 0.27198,-0.180735c0.094292,-0.040159 0.199457,-0.068277 0.315506,-0.08434l0.174068,0z"/>
 </g>
</svg>