<?xml version="1.0" encoding="UTF-8"?>
<svg width="21px" height="21px" viewBox="0 0 21 21" version="1.1" xmlns="http://www.w3.org/2000/svg" xmlns:xlink="http://www.w3.org/1999/xlink">
    <!-- Generator: Sketch 44.1 (41455) - http://www.bohemiancoding.com/sketch -->
    <title>ic_id_phone</title>
    <desc>Created with Sketch.</desc>
    <defs></defs>
    <g id="學生登入頁" stroke="none" stroke-width="1" fill="none" fill-rule="evenodd">
        <g id="[學生]---登入畫面1---帳號登入" transform="translate(-43.000000, -263.000000)" fill="#A2ABB3">
            <g id="Group-12" transform="translate(37.000000, 262.170059)">
                <path d="M16.5,2.5 C15.9661432,2.5 15.4388047,2.60091045 14.9179688,2.80273438 C14.3971328,3.0045583 13.9283875,3.26171719 13.5117188,3.57421875 C13.09505,3.88672031 12.7597669,4.22525859 12.5058594,4.58984375 C12.2519519,4.95442891 12.125,5.29947754 12.125,5.625 L12.125,8.75 C12.125,9.36198223 12.2779933,10.1432244 12.5839844,11.09375 C12.8899755,12.0442756 13.3684863,12.7799453 14.0195312,13.3007812 C14.1888029,13.4309902 14.3157548,13.5970042 14.4003906,13.7988281 C14.4850265,14.0006521 14.514323,14.2122385 14.4882812,14.4335938 C14.4492186,14.6419281 14.3678392,14.8339835 14.2441406,15.0097656 C14.1204421,15.1855478 13.9609385,15.31901 13.765625,15.4101562 L8.27734375,18.0078125 C8.19921836,18.0338543 8.09179756,18.0957026 7.95507812,18.1933594 C7.81835869,18.2910161 7.75,18.4700508 7.75,18.7304688 L7.75,20 L25.2304688,19.9804688 L25.2304688,18.7695312 C25.2304688,18.4309879 25.1490894,18.2194015 24.9863281,18.1347656 C24.8235669,18.0501298 24.7356771,18.0078125 24.7226562,18.0078125 L19.2734375,15.4296875 C19.078124,15.3385412 18.9153652,15.205079 18.7851562,15.0292969 C18.6549473,14.8535147 18.576823,14.654949 18.5507812,14.4335938 C18.5247395,14.2122385 18.554036,14.0006521 18.6386719,13.7988281 C18.7233077,13.5970042 18.8502596,13.4309902 19.0195312,13.3007812 C19.696618,12.7799453 20.1751288,12.0410204 20.4550781,11.0839844 C20.7350274,10.1269483 20.875,9.34896133 20.875,8.75 L20.875,5.625 C20.875,5.28645664 20.744793,4.93489766 20.484375,4.5703125 C20.223957,4.20572734 19.8886739,3.87044424 19.4785156,3.56445312 C19.0683573,3.25846201 18.599612,3.0045583 18.0722656,2.80273438 C17.5449192,2.60091045 17.0208359,2.5 16.5,2.5 Z M16.5,1.25 C17.1901076,1.25 17.8704394,1.38020703 18.5410156,1.640625 C19.2115919,1.90104297 19.8105442,2.23958125 20.3378906,2.65625 C20.865237,3.07291875 21.2949202,3.54166406 21.6269531,4.0625 C21.958986,4.58333594 22.125,5.10416406 22.125,5.625 L22.125,8.75 C22.125,9.12760605 22.0859379,9.56379961 22.0078125,10.0585938 C21.9296871,10.5533879 21.7994801,11.0579401 21.6171875,11.5722656 C21.4348949,12.0865911 21.1940119,12.5813778 20.8945312,13.0566406 C20.5950506,13.5319034 20.2304709,13.9388004 19.8007812,14.2773438 L25.25,16.875 L25.8652344,17.2167969 C26.2753927,17.4446626 26.4804688,17.7408836 26.4804688,18.1054688 L26.4804688,20 C26.4804688,20.3385434 26.3600272,20.628254 26.1191406,20.8691406 C25.878254,21.1100272 25.5885434,21.2304688 25.25,21.2304688 L7.75,21.2304688 C7.39843574,21.2304688 7.10221475,21.1100272 6.86132812,20.8691406 C6.6204415,20.628254 6.5,20.3385434 6.5,20 L6.5,18.1054688 C6.5,17.7669254 6.70833125,17.4772147 7.125,17.2363281 L7.75,16.875 L13.2382812,14.2773438 C12.7955707,13.9257795 12.4244807,13.5026066 12.125,13.0078125 C11.8255193,12.5130184 11.5813812,12.0084661 11.3925781,11.4941406 C11.2037751,10.9798151 11.0703129,10.4785181 10.9921875,9.99023438 C10.9140621,9.50195068 10.875,9.08854336 10.875,8.75 L10.875,5.625 C10.875,5.10416406 11.0377588,4.58333594 11.3632812,4.0625 C11.6888037,3.54166406 12.1152317,3.07291875 12.6425781,2.65625 C13.1699245,2.23958125 13.772132,1.90104297 14.4492188,1.640625 C15.1263055,1.38020703 15.8098924,1.25 16.5,1.25 Z" id="ic_id_phone"></path>
            </g>
        </g>
    </g>
</svg>