<?xml version="1.0" encoding="UTF-8"?>
<svg width="17px" height="21px" viewBox="0 0 17 21" version="1.1" xmlns="http://www.w3.org/2000/svg" xmlns:xlink="http://www.w3.org/1999/xlink">
    <!-- Generator: Sketch 44.1 (41455) - http://www.bohemiancoding.com/sketch -->
    <title>ic_sn_phone</title>
    <desc>Created with Sketch.</desc>
    <defs></defs>
    <g id="學生登入頁" stroke="none" stroke-width="1" fill="none" fill-rule="evenodd">
        <g id="[學生]---登入畫面1---帳號登入" transform="translate(-45.000000, -318.000000)" fill="#A2ABB3">
            <g id="Group-12" transform="translate(37.000000, 262.170059)">
                <path d="M22.125,64.2695312 C22.8151076,64.2695312 23.4042944,64.5136694 23.8925781,65.0019531 C24.3808618,65.4902368 24.625,66.0794236 24.625,66.7695312 L24.625,74.2695312 C24.625,74.9596389 24.3808618,75.5488257 23.8925781,76.0371094 C23.4042944,76.5253931 22.8151076,76.7695312 22.125,76.7695312 L10.875,76.7695312 C10.1848924,76.7695312 9.59570557,76.5253931 9.10742188,76.0371094 C8.61913818,75.5488257 8.375,74.9596389 8.375,74.2695312 L8.375,66.7695312 C8.375,66.0794236 8.61913818,65.4902368 9.10742188,65.0019531 C9.59570557,64.5136694 10.1848924,64.2695312 10.875,64.2695312 L11.9296875,64.2695312 L11.6757812,63.1367188 C11.4934887,62.459632 11.4381507,61.7890658 11.5097656,61.125 C11.5813806,60.4609342 11.7669256,59.8489611 12.0664062,59.2890625 C12.3658869,58.7291639 12.7760391,58.2408875 13.296875,57.8242188 C13.8177109,57.40755 14.4361943,57.1015635 15.1523438,56.90625 C15.8684932,56.7239574 16.5553353,56.6816401 17.2128906,56.7792969 C17.870446,56.8769536 18.4759087,57.08854 19.0292969,57.4140625 C19.5826851,57.739585 20.0579407,58.1725233 20.4550781,58.7128906 C20.8522155,59.2532579 21.1419262,59.8684861 21.3242188,60.5585938 L21.5976562,61.6132812 C21.6367189,61.7825529 21.6139327,61.9420565 21.5292969,62.0917969 C21.444661,62.2415372 21.3177092,62.3359373 21.1484375,62.375 C20.9791658,62.4140627 20.8196622,62.3912765 20.6699219,62.3066406 C20.5201815,62.2220048 20.4257814,62.0950529 20.3867188,61.9257812 L20.1132812,60.8710938 C19.8398424,59.8294219 19.2701866,59.0384142 18.4042969,58.4980469 C17.5384071,57.9576796 16.5651096,57.8307277 15.484375,58.1171875 C14.3775986,58.4166682 13.5963564,59.0188757 13.140625,59.9238281 C12.6848936,60.8287806 12.5937486,61.7955678 12.8671875,62.8242188 L13.1992188,64.2695312 L22.125,64.2695312 Z M23.375,74.2695312 L23.375,66.7695312 C23.375,66.4309879 23.2513033,66.1380221 23.0039062,65.890625 C22.7565092,65.6432279 22.4635434,65.5195312 22.125,65.5195312 L10.875,65.5195312 C10.5364566,65.5195312 10.2434908,65.6432279 9.99609375,65.890625 C9.74869668,66.1380221 9.625,66.4309879 9.625,66.7695312 L9.625,74.2695312 C9.625,74.6210955 9.74869668,74.9173165 9.99609375,75.1582031 C10.2434908,75.3990897 10.5364566,75.5195312 10.875,75.5195312 L22.125,75.5195312 C22.4635434,75.5195312 22.7565092,75.3990897 23.0039062,75.1582031 C23.2513033,74.9173165 23.375,74.6210955 23.375,74.2695312 Z M16.5,68.0195312 C16.8515643,68.0195312 17.1477853,68.1432279 17.3886719,68.390625 C17.6295585,68.6380221 17.75,68.9309879 17.75,69.2695312 C17.75,69.5039074 17.6914068,69.7154938 17.5742188,69.9042969 C17.4570307,70.0930999 17.3072926,70.2395828 17.125,70.34375 L17.125,72.3945312 C17.125,72.5638029 17.0631517,72.7102858 16.9394531,72.8339844 C16.8157546,72.9576829 16.6692717,73.0195312 16.5,73.0195312 C16.3307283,73.0195312 16.1842454,72.9576829 16.0605469,72.8339844 C15.9368483,72.7102858 15.875,72.5638029 15.875,72.3945312 L15.875,70.34375 C15.6927074,70.2395828 15.5429693,70.0930999 15.4257812,69.9042969 C15.3085932,69.7154938 15.25,69.5039074 15.25,69.2695312 C15.25,68.9309879 15.3704415,68.6380221 15.6113281,68.390625 C15.8522147,68.1432279 16.1484357,68.0195312 16.5,68.0195312 Z" id="ic_sn_phone"></path>
            </g>
        </g>
    </g>
</svg>