<?xml version="1.0" encoding="UTF-8"?>
<svg width="200px" height="200px" viewBox="0 0 200 200" version="1.1" xmlns="http://www.w3.org/2000/svg" xmlns:xlink="http://www.w3.org/1999/xlink">
    <!-- Generator: Sketch 44.1 (41455) - http://www.bohemiancoding.com/sketch -->
    <title>Q_ok_success_phone</title>
    <desc>Created with Sketch.</desc>
    <defs></defs>
    <g id="Symbols" stroke="none" stroke-width="1" fill="none" fill-rule="evenodd">
        <g id="Q_ok_success_phone">
            <path d="M63,82 L82,82 L82,101 L63,101 L63,82 Z M63,108 L82,108 L82,127 L63,127 L63,108 Z M63,134 L82,134 L82,153 L63,153 L63,134 Z M91.5,89 L132.5,89 C134.432997,89 136,90.5670034 136,92.5 C136,94.4329966 134.432997,96 132.5,96 L91.5,96 C89.5670034,96 88,94.4329966 88,92.5 C88,90.5670034 89.5670034,89 91.5,89 Z M91.5,114 L132.5,114 C134.432997,114 136,115.567003 136,117.5 C136,119.432997 134.432997,121 132.5,121 L91.5,121 C89.5670034,121 88,119.432997 88,117.5 C88,115.567003 89.5670034,114 91.5,114 Z M91.5,139 L132.5,139 C134.432997,139 136,140.567003 136,142.5 C136,144.432997 134.432997,146 132.5,146 L91.5,146 C89.5670034,146 88,144.432997 88,142.5 C88,140.567003 89.5670034,139 91.5,139 Z" id="Combined-Shape" fill="#455868"></path>
            <path d="M60,70 C56.6862915,70 54,72.6862915 54,76 L54,155 C54,158.313708 56.6862915,161 60,161 L139,161 C142.313708,161 145,158.313708 145,155 L145,76 C145,72.6862915 142.313708,70 139,70 L60,70 Z M60,52 L139,52 C152.254834,52 163,62.745166 163,76 L163,155 C163,168.254834 152.254834,179 139,179 L60,179 C46.745166,179 36,168.254834 36,155 L36,76 C36,62.745166 46.745166,52 60,52 Z" id="Rectangle" fill="#455868" fill-rule="nonzero"></path>
            <path d="M72.8033009,145.974874 L82.1923882,136.585786 C82.9734367,135.804738 84.2397667,135.804738 85.0208153,136.585786 C85.8018639,137.366835 85.8018639,138.633165 85.0208153,139.414214 L74.4142136,150.020815 C74.1337422,150.301287 73.7906938,150.481042 73.4300107,150.560081 C72.7121095,150.841821 71.8641792,150.692606 71.2840097,150.112437 L65.5857864,144.414214 C64.8047379,143.633165 64.8047379,142.366835 65.5857864,141.585786 C66.366835,140.804738 67.633165,140.804738 68.4142136,141.585786 L72.8033009,145.974874 Z M72.8033009,119.974874 L82.1923882,110.585786 C82.9734367,109.804738 84.2397667,109.804738 85.0208153,110.585786 C85.8018639,111.366835 85.8018639,112.633165 85.0208153,113.414214 L74.4142136,124.020815 C74.1337422,124.301287 73.7906938,124.481042 73.4300107,124.560081 C72.7121095,124.841821 71.8641792,124.692606 71.2840097,124.112437 L65.5857864,118.414214 C64.8047379,117.633165 64.8047379,116.366835 65.5857864,115.585786 C66.366835,114.804738 67.633165,114.804738 68.4142136,115.585786 L72.8033009,119.974874 Z M72.8033009,93.9748737 L82.1923882,84.5857864 C82.9734367,83.8047379 84.2397667,83.8047379 85.0208153,84.5857864 C85.8018639,85.366835 85.8018639,86.633165 85.0208153,87.4142136 L74.4142136,98.0208153 C74.1337422,98.3012867 73.7906938,98.4810419 73.4300107,98.560081 C72.7121095,98.841821 71.8641792,98.6926063 71.2840097,98.1124369 L65.5857864,92.4142136 C64.8047379,91.633165 64.8047379,90.366835 65.5857864,89.5857864 C66.366835,88.8047379 67.633165,88.8047379 68.4142136,89.5857864 L72.8033009,93.9748737 Z" id="Combined-Shape" fill="#DD1F00"></path>
            <circle id="Oval-4-Copy" fill="#7DD8BD" cx="160" cy="55" r="35"></circle>
            <path d="M155.442066,61.3162881 L176.269842,40.4885115 C178.00902,38.7493338 180.828784,38.7493338 182.567962,40.4885115 C184.307139,42.2276891 184.307139,45.0474533 182.567962,46.7866309 L159.04712,70.3074728 C158.437791,70.9168016 157.695822,71.3126493 156.914155,71.4950159 C155.299587,72.1637939 153.371403,71.8418643 152.058765,70.529227 L139.432038,57.9024999 C137.692861,56.1633223 137.692861,53.3435581 139.432038,51.6043805 C141.171216,49.8652028 143.99098,49.8652028 145.730158,51.6043805 L155.442066,61.3162881 Z" id="Combined-Shape-Copy-3" fill="#FFFFFF"></path>
        </g>
    </g>
</svg>