<?xml version="1.0" encoding="UTF-8"?>
<svg width="706px" height="240px" viewBox="0 0 706 240" version="1.1" xmlns="http://www.w3.org/2000/svg" xmlns:xlink="http://www.w3.org/1999/xlink">
    <!-- Generator: Sketch 46.2 (44496) - http://www.bohemiancoding.com/sketch -->
    <title>table-bl</title>
    <desc>Created with Sketch.</desc>
    <defs></defs>
    <g id="Page-1" stroke="none" stroke-width="1" fill="none" fill-rule="evenodd">
        <g id="Artboard" transform="translate(-670.000000, -472.000000)">
            <g id="table-bl" transform="translate(670.000000, 472.000000)">
                <rect id="Rectangle" stroke="#D8D8D8" stroke-width="2" x="1" y="1" width="704" height="238" rx="6"></rect>
                <g id="Group-6" transform="translate(325.000000, 145.000000)" fill="#333333">
                    <g id="Group-7">
                        <path d="M0,30 C0.982949766,22.6612811 7.30003677,17 14.946372,17 C22.5927073,17 28.9097943,22.6612811 29.8927441,30 L0,30 Z M14.946372,15 C10.7823545,15 7.40675124,11.6421356 7.40675124,7.5 C7.40675124,3.35786438 10.7823545,0 14.946372,0 C19.1103896,0 22.4859928,3.35786438 22.4859928,7.5 C22.4859928,11.6421356 19.1103896,15 14.946372,15 Z M36.8996273,2 L52.9841517,2 C54.6497587,2 56,3.34314575 56,5 C56,6.65685425 54.6497587,8 52.9841517,8 L36.8996273,8 C35.2340203,8 33.883779,6.65685425 33.883779,5 C33.883779,3.34314575 35.2340203,2 36.8996273,2 Z M36.8996273,13 L52.9841517,13 C54.6497587,13 56,14.3431458 56,16 C56,17.6568542 54.6497587,19 52.9841517,19 L36.8996273,19 C35.2340203,19 33.883779,17.6568542 33.883779,16 C33.883779,14.3431458 35.2340203,13 36.8996273,13 Z M36.8996273,24 L52.9841517,24 C54.6497587,24 56,25.3431458 56,27 C56,28.6568542 54.6497587,30 52.9841517,30 L36.8996273,30 C35.2340203,30 33.883779,28.6568542 33.883779,27 C33.883779,25.3431458 35.2340203,24 36.8996273,24 Z" id="Combined-Shape"></path>
                    </g>
                </g>
                <path d="M1.5,120 L704.500711,120" id="Line" stroke="#D8D8D8" stroke-width="2" stroke-linecap="square"></path>
                <path d="M236,1.5 L236,238.710877" id="Line-2" stroke="#D8D8D8" stroke-width="2" stroke-linecap="square"></path>
                <path d="M471,1.5 L471,238.710877" id="Line-2-Copy" stroke="#D8D8D8" stroke-width="2" stroke-linecap="square"></path>
                <g id="Group-5" transform="translate(85.000000, 145.000000)">
                    <g id="Group-2" transform="translate(0.000000, 48.000000)" font-size="18" font-family="MicrosoftSansSerif, Microsoft Sans Serif" fill="#333333" font-weight="normal">
                        <text id="QR-code">
                            <tspan x="0.0932617188" y="17">QR code</tspan>
                        </text>
                    </g>
                    <path d="M26.7142985,28.5714626 L26.7142985,32.1428955 L23.1428657,32.1428955 L23.1428657,28.5714626 L26.7142985,28.5714626 Z M26.7142985,7.14286566 L26.7142985,10.7142985 L23.1428657,10.7142985 L23.1428657,7.14286566 L26.7142985,7.14286566 Z M48.1428955,7.14286566 L48.1428955,10.7142985 L44.5714626,10.7142985 L44.5714626,7.14286566 L48.1428955,7.14286566 Z M19.5714328,35.6864265 L30.2857313,35.6864265 L30.2857313,25.0000298 L19.5714328,25.0000298 L19.5714328,35.6864265 Z M19.5714328,14.2857313 L30.2857313,14.2857313 L30.2857313,3.57143283 L19.5714328,3.57143283 L19.5714328,14.2857313 Z M41.0000298,14.2857313 L51.7143283,14.2857313 L51.7143283,3.57143283 L41.0000298,3.57143283 L41.0000298,14.2857313 Z M33.8571641,21.428597 L33.8571641,39.2857611 L16,39.2857611 L16,21.428597 L33.8571641,21.428597 Z M48.1428955,35.7143283 L48.1428955,39.2857611 L44.5714626,39.2857611 L44.5714626,35.7143283 L48.1428955,35.7143283 Z M55.2857611,35.7143283 L55.2857611,39.2857611 L51.7143283,39.2857611 L51.7143283,35.7143283 L55.2857611,35.7143283 Z M55.2857611,21.428597 L55.2857611,32.1428955 L44.5714626,32.1428955 L44.5714626,28.5714626 L41.0000298,28.5714626 L41.0000298,39.2857611 L37.428597,39.2857611 L37.428597,21.428597 L48.1428955,21.428597 L48.1428955,25.0000298 L51.7143283,25.0000298 L51.7143283,21.428597 L55.2857611,21.428597 Z M33.8571641,0 L33.8571641,17.8571641 L16,17.8571641 L16,0 L33.8571641,0 Z M55.2857611,0 L55.2857611,17.8571641 L37.428597,17.8571641 L37.428597,0 L55.2857611,0 Z" id="qrcode---FontAwesome" fill="#1A1A1A"></path>
                </g>
                <text id="統計" font-family="微軟正黑體,Arial, Helvetica, sans-serif" font-size="18" font-weight="normal" fill="#333333">
                    <tspan x="335.5" y="208">人員</tspan>
                </text>
                <g id="Group-9" transform="translate(570.000000, 27.000000)" fill="#333333" fill-rule="nonzero">
                    <g id="ic_fullScreen_hover">
                        <path d="M34.1599642,31.2187501 L34.1599642,24 L39,24 L39,36 L26.852459,36 L26.852459,31.2187501 L34.1599642,31.2187501 Z M34.1599642,4.78124994 L26.852459,4.78124994 L26.852459,0 L39,0 L39,12 L34.1599642,12 L34.1599642,4.78124994 Z M4.8400358,4.78124994 L4.8400358,12 L0,12 L0,0 L12.147541,0 L12.147541,4.78124994 L4.8400358,4.78124994 Z M4.8400358,31.2187501 L12.147541,31.2187501 L12.147541,36 L0,36 L0,24 L4.8400358,24 L4.8400358,31.2187501 Z"></path>
                    </g>
                </g>
                <g id="Group-10" transform="translate(100.000000, 26.000000)" fill="#333333" fill-rule="nonzero">
                    <g id="ic_bgSwitcher_hover">
                        <path d="M5.65848217,6.10267863 C9.4888584,2.27230229 14.1026515,0.357142857 19.5,0.357142857 C24.8973485,0.357142857 29.4966328,2.25779349 33.2979911,6.05915177 C37.0993494,9.86051006 39,14.4597944 39,19.8571429 C39,25.2544913 37.0993494,29.8537757 33.2979911,33.6551339 C29.4966328,37.4564922 24.8973485,39.3571429 19.5,39.3571429 C14.1026515,39.3571429 9.5033672,37.4564922 5.70200891,33.6551339 C1.90065063,29.8537757 0,25.2544913 0,19.8571429 C0,14.4597944 1.88614183,9.87501886 5.65848217,6.10267863 Z M19.5,36.5714286 C24.1428803,36.5714286 28.0892695,34.9464448 31.3392857,31.6964286 C34.5893019,28.4464123 36.2142857,24.5000232 36.2142857,19.8571429 C36.2142857,15.2142625 34.5893019,11.2678734 31.3392857,8.01785714 C28.0892695,4.76784091 24.1428803,3.14285714 19.5,3.14285714 L19.5,36.5714286 Z"></path>
                    </g>
                </g>
                <g id="Group-3" transform="translate(562.000000, 72.000000)" font-size="18" font-family="微軟正黑體,Arial, Helvetica, sans-serif" fill="#333333" font-weight="normal">
                    <text id="全螢幕">
                        <tspan x="0.5" y="19">全螢幕</tspan>
                    </text>
                </g>
                
                <polygon id="Triangle" fill="#333333" points="472 1 472 121 236 121"></polygon>
                <g id="Group-11" transform="translate(259.000000, 27.000000)" font-size="18" font-family="微軟正黑體,Arial, Helvetica, sans-serif" font-weight="normal">
                    <text id="黑底白字" fill="#FFFFFF">
                        <tspan x="116.5" y="63">黑底白字</tspan>
                    </text>
                    <text id="白底黑字" fill="#333333">
                        <tspan x="0.5" y="19">白底黑字</tspan>
                    </text>
                </g>
                <g id="Group" transform="translate(83.000000, 72.000000)" font-size="18" font-family="微軟正黑體,Arial, Helvetica, sans-serif" fill="#333333" font-weight="normal">
                    <text id="底色切換">
                        <tspan x="1" y="19">底色切換</tspan>
                    </text>
                </g>
            </g>
        </g>
    </g>
</svg>